SplineFontDB: 3.0
FontName: Epigraf
FullName: font4527
FamilyName: SVGFont 2
Weight: Regular
Copyright: 
Version: 1.0
ItalicAngle: 0
UnderlinePosition: 0
UnderlineWidth: 0
Ascent: 819
Descent: 205
InvalidEm: 0
sfntRevision: 0x00010000
woffMajor: 1
woffMinor: 0
LayerCount: 2
Layer: 0 0 "Back" 1
Layer: 1 0 "Fore" 0
HasVMetrics: 1
XUID: [1021 437 -521488251 14824285]
StyleMap: 0x0000
FSType: 8
OS2Version: 3
OS2_WeightWidthSlopeOnly: 0
OS2_UseTypoMetrics: 0
CreationTime: 1455662059
ModificationTime: 1460985407
PfmFamily: 17
TTFWeight: 400
TTFWidth: 5
LineGap: 92
VLineGap: 92
Panose: 2 0 5 9 0 0 0 0 0 0
OS2TypoAscent: 819
OS2TypoAOffset: 0
OS2TypoDescent: -205
OS2TypoDOffset: 0
OS2TypoLinegap: 92
OS2WinAscent: 1024
OS2WinAOffset: 0
OS2WinDescent: 84
OS2WinDOffset: 0
HheadAscent: 1024
HheadAOffset: 0
HheadDescent: -84
HheadDOffset: 0
OS2SubXSize: 665
OS2SubYSize: 716
OS2SubXOff: 0
OS2SubYOff: 143
OS2SupXSize: 665
OS2SupYSize: 716
OS2SupXOff: 0
OS2SupYOff: 490
OS2StrikeYSize: 51
OS2StrikeYPos: 265
OS2CapHeight: 735
OS2Vendor: 'PfEd'
OS2CodePages: 00000001.00000000
OS2UnicodeRanges: 00000001.00000000.00000000.00000000
DEI: 91125
LangName: 1033 "" "" "" "FontForge 2.0 : font4527 : 17-2-2016" "" "Version 1.0"
Encoding: UnicodeBmp
UnicodeInterp: none
NameList: AGL For New Fonts
DisplaySize: -128
AntiAlias: 0
FitToEm: 0
WinInfo: 36 9 5
BeginPrivate: 7
BlueValues 15 [-10 0 951 966]
BlueScale 9 0.0319355
BlueShift 1 0
StdHW 3 [9]
StdVW 3 [9]
StemSnapH 6 [9 12]
StemSnapV 6 [9 12]
EndPrivate
Grid
-1024 -69.30078125 m 4
 2048 -69.30078125 l 1028
  Named: "down"
-1024 1006.6988678 m 0
 2048 1006.6988678 l 1024
  Named: "up"
EndSplineSet
BeginChars: 65537 26

StartChar: .notdef
Encoding: 65536 -1 0
Width: 1024
Flags: MW
HStem: 0 51<102 922 102 973> 495 51<102 922 102 102>
VStem: 51 51<51 51 51 495> 922 51<51 495 495 495>
LayerCount: 2
Fore
SplineSet
51 0 m 1
 51 546 l 1
 973 546 l 1
 973 0 l 1
 51 0 l 1
102 51 m 1
 922 51 l 1
 922 495 l 1
 102 495 l 1
 102 51 l 1
EndSplineSet
Validated: 1
EndChar

StartChar: uni0000
Encoding: 0 -1 1
AltUni2: 000000.ffffffff.0
Width: 1024
VWidth: 89
Flags: MW
HStem: 0 1024<0 1000 0 1000>
VStem: 0 1000<0 1024 0 1024>
LayerCount: 2
Fore
SplineSet
0 0 m 1
 0 1024 l 1
 1000 1024 l 1
 1000 0 l 1
 0 0 l 1
EndSplineSet
Validated: 1
EndChar

StartChar: zero
Encoding: 48 48 2
Width: 1020
VWidth: 0
Flags: MW
HStem: 107 7844.55 16173.7 8749.44
VStem: 290.721 0.600006 349.921 0.600006 363.521 0.399994
LayerCount: 2
Fore
SplineSet
490.12890625 1017.48144531 m 0
 528.943359375 1017.47949219 567.208007812 1009.95019531 604.01171875 997.452148438 c 0
 651.450195312 978.936523438 695.9609375 951.682617188 731.869140625 915.444335938 c 0
 779.366210938 869.969726562 818.413085938 814.909179688 844.3828125 754.352539062 c 0
 876.127929688 685.274414062 893.514648438 610.73828125 901.563476562 535.423828125 c 0
 904.873046875 487.235351562 906.088867188 438.2578125 899.1953125 390.309570312 c 0
 888.708007812 297.901367188 860.638671875 206.55078125 812.09765625 127.014648438 c 0
 792.022460938 93.2626953125 766.958984375 63.3125 740.107421875 34.7763671875 c 0
 696.612304688 -5.9892578125 647.078125 -43.1484375 588.87109375 -59.541015625 c 0
 506.752929688 -87.0634765625 414.287109375 -76.21484375 338.677734375 -34.8994140625 c 0
 276.560546875 -0.6435546875 224.151367188 50.109375 184.731445312 108.888671875 c 0
 157.133789062 154.354492188 131.233398438 201.620117188 116.16796875 252.873046875 c 0
 108.25 275.8359375 101.734375 299.580078125 97.0673828125 323.400390625 c 0
 87.6376953125 364.53125 83.9169921875 406.516601562 81.740234375 448.6328125 c 0
 79.712890625 495.33203125 84.0126953125 542.428710938 91.1142578125 588.5625 c 0
 96.7197265625 621.04296875 104.202148438 653.087890625 114.206054688 684.44921875 c 0
 128.896484375 734.465820312 153.403320312 780.619140625 178.72265625 825.978515625 c 1
 203.233398438 860.327148438 228.65234375 894.35546875 260.606445312 922.137695312 c 0
 318.342773438 976.209960938 394.448242188 1010.63964844 473.461914062 1017.01269531 c 0
 479.02734375 1017.328125 484.583984375 1017.48144531 490.12890625 1017.48144531 c 0
488.443359375 1011.16992188 m 0
 483.602539062 1011.14550781 478.7578125 1011.00585938 473.912109375 1010.75195312 c 0
 396.189453125 1004.56152344 321.17578125 970.25 264.444335938 917.084960938 c 0
 236.4921875 892.87109375 214.061523438 863.568359375 192.040039062 834.002929688 c 0
 166.452148438 792.8125 142.3984375 749.498046875 127.658203125 703.072265625 c 0
 113.205078125 665.490234375 104.422851562 626.203125 97.1240234375 586.67578125 c 0
 89.6171875 534.805664062 84.423828125 481.864257812 89.419921875 429.477539062 c 0
 90.04296875 392.024414062 97.58984375 355.521484375 104.077148438 318.850585938 c 0
 116.9375 269.586914062 130.35546875 219.641601562 155.125 174.666015625 c 0
 183.415039062 114.76171875 223.556640625 60.4287109375 274.0078125 17.43359375 c 0
 324.2421875 -25.5458984375 385.166015625 -56.6513671875 451.139648438 -65.5693359375 c 0
 529.100585938 -76.40234375 611.413085938 -55.845703125 675.333984375 -10.044921875 c 0
 716.775390625 17.642578125 751.712890625 53.69140625 781.924804688 93.0439453125 c 0
 815.150390625 138.602539062 840.538085938 189.092773438 859.46875 242.171875 c 0
 882.412109375 309.497070312 895.626953125 380.499023438 897.486328125 451.583007812 c 0
 899.685546875 500.758789062 894.55859375 549.58203125 886.337890625 598.012695312 c 0
 868.161132812 693.315429688 832.481445312 787.536132812 770.982421875 863.515625 c 0
 747.213867188 892.674804688 720.923828125 920.143554688 690.788085938 942.662109375 c 0
 632.876953125 986.319335938 561.067382812 1011.546875 488.443359375 1011.16992188 c 0
494.915039062 914.418945312 m 0
 496.716796875 914.412109375 498.518554688 914.3828125 500.322265625 914.334960938 c 0
 512.008789062 912.796875 523.908203125 912.228515625 535.501953125 910.147460938 c 0
 615.513671875 897.6953125 684.146484375 838.485351562 714.655273438 764.465820312 c 0
 728.65625 724.849609375 734.479492188 682.591796875 740.518554688 641.166015625 c 0
 748.89453125 568.4765625 754.1640625 495.39453125 750.838867188 422.200195312 c 0
 746.350585938 359.38671875 742.796875 296.084960938 729.108398438 234.456054688 c 1
 723.185546875 187.766601562 701.83203125 143.896484375 671.005859375 108.649414062 c 0
 635.040039062 65.7646484375 582.075195312 40.2333984375 527.506835938 31.1123046875 c 0
 478.521484375 22.0576171875 428.494140625 34.044921875 384.046875 54.841796875 c 0
 322.4375 85.1337890625 279.599609375 145.029296875 260.861328125 210.045898438 c 1
 237.958007812 313.134765625 232.369140625 419.421875 235.736328125 524.779296875 c 0
 237.762695312 595.616210938 246.192382812 666.506835938 261.502929688 735.614257812 c 0
 275.639648438 783.225585938 302.90625 827.176757812 340.8671875 859.329101562 c 0
 383.868164062 895.145507812 439.064453125 914.653320312 494.915039062 914.418945312 c 0
490.323242188 908.124023438 m 0
 488.415039062 908.12890625 486.50390625 908.110351562 484.59375 908.072265625 c 0
 412.255859375 905.139648438 341.469726562 867.450195312 302.180664062 806.185546875 c 1
 260.624023438 750.782226562 257.564453125 679.327148438 247.8359375 613.33984375 c 0
 236.4453125 491.299804688 238.686523438 367.544921875 259.568359375 246.609375 c 0
 271.548828125 164.51171875 323.021484375 84.4189453125 402.360351562 53.8623046875 c 0
 451.086914062 32.921875 507.203125 27.619140625 557.864257812 44.91015625 c 1
 625.787109375 61.91796875 680.188476562 114.7578125 707.55078125 178.084960938 c 0
 722.104492188 215.770507812 726.891601562 256.787109375 733.74609375 296.454101562 c 0
 741.528320312 367.650390625 747.48828125 439.06640625 745.051757812 510.752929688 c 0
 741.260742188 575.11328125 736.891601562 639.84765625 723.797851562 703.079101562 c 1
 717.416992188 757.224609375 691.086914062 807.911132812 651.533203125 845.075195312 c 0
 608.73828125 886.750976562 549.55078125 907.963867188 490.323242188 908.124023438 c 0
810.974609375 495.153320312 m 0
 824.079101562 495.400390625 833.487304688 486.407226562 836.26953125 473.267578125 c 0
 837.51953125 453.811523438 813.775390625 439.512695312 797.912109375 451.764648438 c 0
 779.650390625 462.352539062 786.830078125 491.383789062 806.791992188 494.775390625 c 0
 808.223632812 495.00390625 809.618164062 495.129882812 810.974609375 495.153320312 c 0
173.888671875 495.112304688 m 0
 184.883789062 494.958984375 195.096679688 488.315429688 196.916992188 476.580078125 c 0
 202.951171875 456.061523438 177.33984375 438.73828125 160.596679688 451.556640625 c 0
 142.012695312 461.889648438 149.016601562 491.388671875 169.150390625 494.776367188 c 0
 170.73046875 495.0234375 172.317382812 495.1328125 173.888671875 495.112304688 c 0
174.862304688 489.234375 m 0
 173.299804688 489.225585938 171.637695312 488.982421875 169.884765625 488.470703125 c 0
 147.125976562 482.040039062 155.224609375 450.545898438 177.456054688 453.970703125 c 0
 197.829101562 456.903320312 193.284179688 489.333007812 174.862304688 489.234375 c 0
812.284179688 489.161132812 m 1
 810.780273438 489.15625 809.1875 488.9375 807.525390625 488.47265625 c 2
 807.07421875 488.249023438 l 1
 804.622070312 487.040039062 l 2
 783.334960938 479.588867188 797.278320312 447.133789062 817.130859375 454.6640625 c 0
 836.30859375 459.588867188 830.052734375 489.225585938 812.284179688 489.161132812 c 1
 812.284179688 489.161132812 l 1
EndSplineSet
Validated: 524321
EndChar

StartChar: one
Encoding: 49 49 3
Width: 658
VWidth: 89
Flags: MW
HStem: -165.502 11.4704 -81.7676 11.4704 -68.0031 21G 560.575 11.4704 965.481 11.4704
VStem: 111.326 11.4704 332.705 11.4704 500.173 11.4704
LayerCount: 2
Fore
SplineSet
327.603515625 832.82421875 m 0
 305.134765625 831.897460938 303.828125 868.931640625 325.991210938 868.983398438 c 0
 346.8984375 867.60546875 351.20703125 835.505859375 327.603515625 832.82421875 c 0
326.295898438 875.221679688 m 2
 326.189453125 875.228515625 l 1
 326.083007812 875.228515625 l 2
 295.221679688 875.157226562 297.053710938 825.314453125 327.973632812 826.590820312 c 2
 328.084960938 826.594726562 l 1
 328.196289062 826.607421875 l 2
 359.59765625 830.173828125 354.618164062 873.352539062 326.295898438 875.221679688 c 2
408.712890625 27.9423828125 m 0
 404.530273438 91.580078125 408.134765625 157.299804688 406.930664062 222.01171875 c 2
 406.930664062 990.7421875 l 1
 406.887695312 990.99609375 l 2
 404.4765625 1005.58886719 391.051757812 1011.54589844 379.9453125 1014.62207031 c 2
 379.450195312 1014.75976562 l 1
 378.9375 1014.73144531 l 2
 341.90234375 1012.65722656 302.793945312 1019.17578125 265.44140625 1011.1796875 c 2
 265.172851562 1011.12109375 l 1
 264.918945312 1011.01855469 l 2
 239.079101562 1000.51269531 246.719726562 966.796875 236.163085938 950.83203125 c 2
 235.944335938 950.498046875 l 1
 235.813476562 950.120117188 l 2
 205.033203125 860.161132812 139.7265625 782.454101562 56.1279296875 737.055664062 c 2
 55.89453125 736.928710938 l 1
 55.685546875 736.763671875 l 2
 28.7734375 715.538085938 44.1728515625 675.665039062 40.3984375 649.952148438 c 2
 40.3369140625 649.541992188 l 1
 40.3857421875 649.1328125 l 2
 43.7978515625 620.125976562 73.7216796875 617.180664062 94.9638671875 619.891601562 c 0
 119.2109375 620.709960938 150.099609375 613.26171875 167.248046875 639.98046875 c 1
 246.984375 719.717773438 l 1
 246.984375 27.8466796875 l 2
 243.985351562 2.861328125 216.1796875 13.1298828125 195.157226562 7.5087890625 c 2
 194.9140625 7.4443359375 l 1
 194.684570312 7.3408203125 l 2
 158.456054688 -8.9208984375 163.322265625 -67.2998046875 201.749023438 -76.125 c 2
 202.094726562 -76.2041015625 l 1
 457.481445312 -76.2041015625 l 1
 458.063476562 -75.9580078125 l 2
 494.2109375 -60.6982421875 492.529296875 -0.4951171875 454.106445312 9.47265625 c 2
 453.614257812 9.599609375 l 1
 453.106445312 9.5654296875 l 2
 434.173828125 8.259765625 411.127929688 7.3544921875 408.712890625 27.9423828125 c 0
378.791015625 1008.46875 m 0
 388.658203125 1005.52539062 398.966796875 1000.62207031 400.727539062 989.977539062 c 1
 399.018554688 1010.79101562 400.685546875 1011.36914062 400.685546875 990.486328125 c 2
 400.685546875 221.952148438 l 2
 401.887695312 157.4140625 398.267578125 91.6396484375 402.486328125 27.4541015625 c 2
 402.493164062 27.3740234375 l 1
 402.500976562 27.2958984375 l 2
 405.666015625 0.328125 435.102539062 2.080078125 453.021484375 3.2998046875 c 1
 483.287109375 -5.3505859375 487.322265625 -55.939453125 456.204101562 -69.9599609375 c 1
 202.796875 -69.9599609375 l 1
 172.161132812 -62.1533203125 165.370117188 -13.55078125 197.015625 1.546875 c 0
 211.841796875 5.0400390625 249.48046875 -3.7646484375 253.206054688 27.2880859375 c 2
 253.228515625 27.4716796875 l 1
 253.228515625 734.79296875 l 1
 162.23828125 643.802734375 l 1
 162.0390625 643.46875 l 2
 148.146484375 620.150390625 120.625976562 627.005859375 94.6083984375 626.127929688 c 2
 94.462890625 626.122070312 l 1
 94.3173828125 626.104492188 l 2
 73.3896484375 623.43359375 50.158203125 626.203125 46.634765625 649.422851562 c 1
 50.3486328125 678.181640625 37.2412109375 714.321289062 59.1083984375 731.567382812 c 1
 143.982421875 777.659179688 209.7578125 855.508789062 241.583007812 947.690429688 c 1
 254.173828125 968.2578125 246.95703125 997.02734375 266.747070312 1005.07324219 c 0
 302.615234375 1012.75097656 339.672851562 1006.45507812 378.791015625 1008.46875 c 0
353.201171875 85.5986328125 m 1
 347.544921875 116.250976562 299.006835938 106.201171875 306.516601562 75.154296875 c 1
 302.649414062 95.67578125 303.642578125 96.1572265625 306.458984375 75.466796875 c 0
 310.735351562 44.03515625 363.372070312 56.2626953125 353.201171875 85.5986328125 c 1
347.224609375 83.77734375 m 2
 354.495117188 62.806640625 315.647460938 54.2470703125 312.646484375 76.3095703125 c 2
 312.623046875 76.4677734375 l 1
 312.586914062 76.6220703125 l 2
 307.083984375 99.3701171875 343.013671875 106.403320312 347.104492188 84.232421875 c 2
 347.147460938 84 l 1
 347.224609375 83.77734375 l 2
EndSplineSet
Validated: 524325
EndChar

StartChar: two
Encoding: 50 50 4
Width: 1017
VWidth: 89
Flags: HMWO
HStem: -74 10 40 10 77 10 802 10 808 12
VStem: 700 12
LayerCount: 2
Fore
SplineSet
690.715820312 877.143554688 m 4xe4
 678.403320312 849.607421875 729.421875 825.780273438 735.043945312 863.959960938 c 4
 739.776367188 889.7578125 700.7890625 900.706054688 690.715820312 877.143554688 c 4xe4
696.409179688 874.653320312 m 4
 703.586914062 891.4453125 732.301757812 883.44921875 728.913085938 864.971679688 c 4
 724.55859375 835.409179688 688.200195312 856.297851562 696.409179688 874.653320312 c 4
427.217773438 8.0732421875 m 0
 431.989257812 -24.1064453125 489.956054688 -11.84765625 468.650390625 24.642578125 c 2
 468.470703125 24.94921875 l 1
 468.227539062 25.208984375 l 2
 453.82421875 40.4638671875 424.702148438 30.5859375 427.217773438 8.0732421875 c 0
433.379882812 8.8740234375 m 0
 431.588867188 24.900390625 452.767578125 31.5732421875 463.471679688 21.1962890625 c 1
 479.40625 -7.80859375 436.526367188 -12.337890625 433.379882812 8.8740234375 c 0
769.889648438 136.572265625 m 0
 766.12890625 118.302734375 759.358398438 109.7265625 746.78125 107.829101562 c 2
 746.78125 107.829101562 307.359375 107.802734375 268.00390625 107.802734375 c 1
 299.985351562 155.788085938 337.963867188 196.1875 380.506835938 233.075195312 c 0
 418.580078125 263.9140625 456.64453125 295.005859375 500.401367188 316.8828125 c 2
 500.522460938 316.944335938 l 1
 500.638671875 317.015625 l 2
 552.96875 349.202148438 613.426757812 365.34765625 668.893554688 393.15234375 c 2
 668.9609375 393.184570312 l 1
 669.029296875 393.22265625 l 2
 751.325195312 439.565429688 819.736328125 512.6328125 852.618164062 602.114257812 c 0
 869.961914062 647.809570312 884.377929688 697.987304688 870.939453125 747.716796875 c 1
 857.225585938 822.296875 817.954101562 893.267578125 758.3046875 940.891601562 c 0
 699.7265625 991.967773438 621.094726562 1017.71582031 543.891601562 1015.83886719 c 0
 480.041015625 1013.21289062 415.944335938 997.037109375 361.580078125 962.353515625 c 0
 314.668945312 933.95703125 273.572265625 895.602539062 242.897460938 849.826171875 c 0
 207.900390625 799.0234375 188.99609375 738.120117188 182.61328125 677.469726562 c 2
 182.568359375 677.049804688 l 1
 182.63671875 676.634765625 l 2
 188.787109375 639.7578125 213.334960938 597.971679688 250.22265625 586.3203125 c 0
 297.918945312 566.66796875 357.852539062 595.591796875 380.217773438 642.265625 c 0
 393.69921875 667.999023438 396.040039062 701.560546875 384.618164062 728.647460938 c 0
 378.311523438 746.266601562 366.317382812 760.354492188 353.135742188 772.594726562 c 2
 352.840820312 772.868164062 l 1
 352.485351562 773.05859375 l 2
 336.282226562 781.708007812 317.66015625 793.84375 299.108398438 794.817382812 c 1
 313.89453125 820.5 331.25 841.999023438 354.64453125 858.9765625 c 2
 354.721679688 859.033203125 l 1
 354.794921875 859.09375 l 2
 425.903320312 917.692382812 537.729492188 915.587890625 607.977539062 856.388671875 c 2
 608.060546875 856.318359375 l 1
 608.147460938 856.255859375 l 2
 651.536132812 824.581054688 677.341796875 773.427734375 685.583984375 720.703125 c 0
 690.8359375 659.596679688 674.958984375 597.086914062 638.615234375 547.38671875 c 0
 619.403320312 521.08203125 594.470703125 498.9375 566.818359375 481.3515625 c 0
 532.805664062 457.966796875 490.403320312 453.522460938 452.803710938 433.494140625 c 1
 405.286132812 416.177734375 363.590820312 386.717773438 323.428710938 357.1875 c 2
 323.35546875 357.131835938 l 1
 323.283203125 357.07421875 l 2
 281.114257812 322.006835938 239.904296875 284.1015625 209.805664062 237.407226562 c 0
 152.29296875 159.609375 121.224609375 59.2060546875 107.985351562 -35.7001953125 c 0
 106.682617188 -49.19140625 98.3798828125 -77.021484375 126.51953125 -68.7822265625 c 1
 754.514648438 -68.7822265625 l 1
 754.938476562 -68.6572265625 l 2
 779.787109375 -61.4287109375 779.685546875 -24.265625 788.90625 -8.55078125 c 2
 789.03125 -8.3369140625 l 1
 789.12109375 -8.1064453125 l 2
 809.6171875 44.5078125 832.045898438 97.060546875 851.454101562 149.940429688 c 2
 851.591796875 150.318359375 l 1
 851.629882812 150.719726562 l 2
 854.267578125 178.950195312 817.250976562 195.95703125 795.521484375 180.868164062 c 1
 795.521484375 180.868164062 770.58984375 148.241210938 769.889648438 136.572265625 c 0
259.645507812 106.383789062 m 2
 256.538085938 101.588867188 l 1
 747.296875 101.588867188 l 2
 764.138671875 104.693359375 771.977539062 115.904296875 776.01953125 135.538085938 c 2
 776.064453125 135.754882812 l 1
 776.078125 135.977539062 l 2
 777.10546875 153.103515625 782.470703125 169.176757812 798.42578125 175.422851562 c 2
 798.766601562 175.557617188 l 1
 799.06640625 175.765625 l 2
 816.774414062 188.061523438 846.78515625 174.024414062 845.481445312 151.701171875 c 1
 826.395507812 99.8056640625 803.811523438 46.7177734375 783.33203125 -5.8505859375 c 1
 792.345703125 12.763671875 794.01171875 12.4326171875 783.546875 -5.40625 c 0
 772.239257812 -24.681640625 773.981445312 -55.765625 753.638671875 -62.568359375 c 1
 125.532226562 -62.568359375 l 1
 125.069335938 -62.716796875 l 2
 105.524414062 -68.9814453125 112.413085938 -54.474609375 114.157226562 -36.4287109375 c 0
 127.255859375 57.4755859375 158.174804688 157.115234375 214.860351562 233.791992188 c 2
 214.920898438 233.872070312 l 1
 214.974609375 233.956054688 l 2
 244.500976562 279.765625 285.240234375 317.357421875 327.255859375 352.296875 c 1
 310.96484375 339.552734375 310.447265625 339.930664062 327.109375 352.182617188 c 0
 367.21484375 381.670898438 408.651367188 410.791992188 455.134765625 427.73046875 c 2
 455.33984375 427.806640625 l 1
 455.532226562 427.908203125 l 2
 491.572265625 447.104492188 534.818359375 451.807617188 570.247070312 476.16796875 c 0
 598.302734375 494.012695312 623.904296875 516.70703125 643.633789062 543.723632812 c 0
 680.931640625 594.73046875 697.138671875 658.834960938 691.764648438 721.340820312 c 2
 691.756835938 721.44921875 l 1
 691.740234375 721.5546875 l 2
 683.298828125 775.5546875 656.84765625 828.395507812 611.809570312 861.2734375 c 1
 628.081054688 848.50390625 627.797851562 847.8125 611.982421875 861.139648438 c 0
 539.432617188 922.280273438 424.392578125 924.499023438 350.844726562 863.887695312 c 1
 367.202148438 876.544921875 367.733398438 876.155273438 350.995117188 864.005859375 c 0
 325.334960938 845.385742188 306.119140625 820.588867188 291.079101562 793.204101562 c 2
 288.385742188 788.30078125 l 1
 293.970703125 788.60546875 l 2
 313.678710938 789.6796875 330.090820312 778.080078125 349.209960938 767.762695312 c 1
 361.357421875 756.340820312 373.030273438 742.583007812 378.796875 726.471679688 c 2
 378.827148438 726.390625 l 1
 378.861328125 726.310546875 l 2
 389.495117188 701.0859375 387.3984375 669.365234375 374.663085938 645.049804688 c 0
 353.68359375 601.274414062 297.03515625 573.75390625 252.46875 592.116210938 c 2
 252.346679688 592.1640625 l 1
 252.220703125 592.205078125 l 2
 218.37890625 602.89453125 195.18359375 641.35546875 188.834960938 677.237304688 c 1
 195.2109375 736.352539062 213.731445312 796.534179688 248.037109375 846.333984375 c 0
 278.2421875 891.408203125 318.540039062 929.036132812 364.861328125 957.075195312 c 0
 418.194335938 991.102539062 481.180664062 1007.04199219 544.094726562 1009.62792969 c 0
 619.7890625 1011.46875 696.844726562 986.237304688 754.321289062 936.120117188 c 0
 812.869140625 889.377929688 851.377929688 819.73828125 864.8515625 746.46875 c 2
 864.874023438 746.341796875 l 1
 864.907226562 746.21875 l 2
 877.766601562 698.63671875 864.073242188 649.806640625 846.797851562 604.287109375 c 0
 814.481445312 516.349609375 747.1640625 444.35546875 665.978515625 398.63671875 c 1
 684.240234375 408.348632812 684.600585938 407.975585938 666.110351562 398.70703125 c 0
 611.41796875 371.291015625 550.728515625 355.118164062 497.384765625 322.307617188 c 1
 515.459960938 332.360351562 516.122070312 331.69140625 497.623046875 322.44140625 c 0
 452.9921875 300.126953125 414.75 268.806640625 376.515625 237.838867188 c 0
 332.1953125 199.408203125 291.604492188 155.729492188 259.645507812 106.383789062 c 2
EndSplineSet
EndChar

StartChar: three
Encoding: 51 51 5
Width: 992
VWidth: 0
Flags: HMW
HStem: -167.02 7.63473 926.019 7.63473 1119.43 7.63473 1125.79 7.63473
VStem: 179.918 7.63473 342.792 7.63473 888.675 7.63473
LayerCount: 2
Fore
SplineSet
315.407226562 -30.2626953125 m 1xce
 345.470703125 -46.0576171875 378.4765625 -54 410.859375 -61.5341796875 c 0
 410.966796875 -61.5615234375 l 1
 411.076171875 -61.578125 l 0
 467.473632812 -70.6689453125 525.379882812 -66.8623046875 580.931640625 -55.41015625 c 0
 581.037109375 -55.3876953125 l 1
 581.141601562 -55.359375 l 0
 600.81640625 -49.9052734375 617.811523438 -39.5 636.555664062 -34.9873046875 c 0
 636.7734375 -34.935546875 l 1
 636.983398438 -34.8525390625 l 0
 670.725585938 -21.521484375 700.819335938 -0.34765625 728.834960938 21.509765625 c 0
 728.961914062 21.609375 l 1
 729.080078125 21.72265625 l 0
 742.100585938 34.19140625 757.20703125 45.84765625 766.56640625 62.1416015625 c 1
 819.344726562 123.8727489 846.736328125 233.349953676 843.905273438 308.943359375 c 1
 841.6328125 384.581679405 828.85546875 460.467773438 771.826171875 509.7734375 c 5
 749.176757812 543.150390625 699.536132812 565.767420393 672.265625 589.828125 c 0
 672.202148438 589.8671875 l 1
 672.13671875 589.90625 l 0
 645.1015625 605.13671875 614.903320312 618.233398438 586.646484375 627.35546875 c 1
 580.06640625 641.69921875 599.361328125 652.3125 607.313476562 667.83984375 c 1
 685.154296875 774.26171875 762.141601562 877.592773438 838.6875 983.46875 c 0
 838.926757812 983.799804688 l 1
 839.075195312 984.180664062 l 0
 841.481445312 990.323242188 842.962890625 996.087890625 843.5703125 1001.47265625 c 0
 846.64453125 1028.7578125 826.90625 1044.29589844 798.313476562 1047.38378906 c 0
 798.141601562 1047.40136719 l 1
 266.763671875 1047.40136719 l 1
 266.57421875 1047.37890625 l 2
 248.768554688 1045.25 243.302734375 1028.67285156 238.4140625 1016.01269531 c 1
 215.325195312 960.978515625 189.317382812 906.220703125 167.830078125 850.512695312 c 0
 167.661132812 850.073242188 l 1
 167.625 849.606445312 l 0
 166.515625 835.420898438 173.33984375 824.69921875 183.0078125 818.497070312 c 0
 199.53515625 807.892578125 224.111328125 810.200195312 234.342773438 826.321289062 c 1
 254.25 840.764648438 240.727539062 864.998046875 258.227539062 871.155273438 c 0
 258.435546875 871.228515625 l 1
 258.630859375 871.329101562 l 0
 274.024414062 879.254882812 294.3984375 872.521484375 314.313476562 874.918945312 c 1
 618.935546875 874.918945312 l 1
 553.737304688 783.16796875 490.473632812 690.950195312 424.524414062 600.39453125 c 0
 424.118164062 599.8359375 l 1
 423.977539062 599.161132812 l 0
 421.475585938 587.244140625 420.079101562 568.732421875 436.349609375 561.71484375 c 1
 454.498046875 551.909179688 475.72265625 560.575195312 491.291992188 552.404296875 c 0
 491.469726562 552.3125 l 1
 491.65625 552.243164062 l 0
 523.379882812 540.325195312 556.78125 532.330078125 580.39453125 508.477539062 c 0
 580.555664062 508.314453125 l 1
 580.736328125 508.177734375 l 0
 609.537109375 486.3359375 631.725585938 457.215820312 646.732421875 424.359375 c 0
 646.830078125 424.146484375 l 1
 646.95703125 423.94921875 l 0
 658.260742188 406.471679688 658.80859375 382.5234375 665.688476562 362.23828125 c 1
 666.5234375 335.778320312 671.751953125 312.587890625 664.515625 288.754882812 c 0
 664.419921875 288.442382812 l 1
 664.389648438 288.116210938 l 0
 659.03125 218.694131898 619.989257812 153.434217934 585.806640625 106.099609375 c 1
 544.782226562 79.265625 496.866210938 52.916015625 453.638671875 56.685546875 c 0
 453.27734375 56.716796875 l 1
 452.916992188 56.6669921875 l 0
 417.044921875 51.6884765625 374.594726562 60.3154296875 342.662109375 71.6279296875 c 1
 315.318359375 83.0859375 289.561523438 98.4443359375 266.447265625 116.802734375 c 1
 249.461914062 133.232421875 232.775390625 149.091796875 221.17578125 169.0390625 c 0
 221.04296875 169.266601562 l 1
 220.876953125 169.46875 l 0
 216.163085938 175.185546875 208.885742188 186.005859375 208.1796875 189.80078125 c 1
 210.139648438 189.650390625 212.1015625 189.083984375 215.798828125 187.461914062 c 0
 216.291992188 187.245117188 l 1
 216.830078125 187.201171875 l 0
 245.810546875 184.845703125 275.780273438 190.138671875 299.409179688 207.379882812 c 1
 318.086914062 215.15625 326.099609375 231.030273438 336.44921875 243.75 c 0
 336.955078125 244.37109375 l 1
 337.109375 245.15625 l 0
 340.740234375 263.569335938 351.780273438 283.5390625 345.8671875 303.844726562 c 1
 346.0390625 323.700195312 333.581054688 336.758789062 328.236328125 351.688476562 c 0
 327.845703125 352.780273438 l 1
 326.84765625 353.372070312 l 0
 310.799804688 362.866210938 298.254882812 382.399414062 277.404296875 386.862304688 c 1
 254.166992188 399.84375 228.563476562 393.817382812 206.22265625 393.775390625 c 0
 205.676757812 393.774414062 l 1
 205.16015625 393.592773438 l 0
 165.594726562 379.643554688 126.721679688 349.778320312 120.509765625 305.34375 c 1
 113.161132812 286.647460938 119.129882812 279.482421875 118.112304688 263.477539062 c 0
 118.103515625 263.3359375 l 1
 118.107421875 263.193359375 l 0
 119.104492188 223.325195312 124.862304688 182.259765625 142.399414062 146.017578125 c 1
 152.749023438 110.108398438 176.58984375 84.6923828125 197.135742188 57.6533203125 c 0
 197.270507812 57.4765625 l 1
 197.427734375 57.3203125 l 0
 231.951171875 22.935546875 268.244140625 -12.2431640625 315.407226562 -30.2626953125 c 1xce
267.147460938 1040.97460938 m 1
 797.96875 1040.97460938 l 1
 796.899414062 1041.03125 796.55859375 1041.10742188 797.623046875 1040.99316406 c 0
 824.459960938 1038.09667969 839.743164062 1024.91503906 837.182617188 1002.19433594 c 0
 836.637695312 997.357421875 835.766601562 993.612304688 833.243164062 986.909179688 c 1
 757.345703125 881.946289062 678.838867188 776.524414062 601.916992188 671.348632812 c 0
 601.733398438 671.096679688 l 1
 601.6015625 670.814453125 l 0
 596.25390625 659.393554688 569.944335938 642.885742188 581.701171875 623.038085938 c 0
 582.325195312 621.984375 l 1
 583.494140625 621.61328125 l 0
 612.123046875 612.528320312 641.9296875 599.545898438 668.981445312 584.305664062 c 1
 668.060546875 584.852539062 667.944335938 584.950195312 668.852539062 584.381835938 c 0
 696.075195312 560.267139979 745.133789062 537.967773438 767.2265625 505.286132812 c 5
 823.23828125 457.020507812 835.249023438 382.815946113 837.481445312 308.724609375 c 1
 840.245117188 234.718482974 812.600585938 125.459723067 761.665039062 66.322265625 c 0
 761.360351562 66.0126953125 l 1
 761.150390625 65.6328125 l 0
 752.471679688 49.970703125 738.18359375 39.33984375 724.634765625 26.365234375 c 1
 725.444335938 27.06640625 725.724609375 27.2373046875 724.880859375 26.578125 c 0
 697.03125 4.8505859375 667.4140625 -15.9189453125 634.622070312 -28.8740234375 c 1
 635.643554688 -28.55078125 636.091796875 -28.4873046875 635.05078125 -28.73828125 c 0
 615.016601562 -33.5625 597.934570312 -44.033203125 579.424804688 -49.166015625 c 1
 580.46484375 -48.9150390625 580.68359375 -48.8984375 579.634765625 -49.115234375 c 0
 524.6640625 -60.447265625 467.532226562 -64.16796875 412.098632812 -55.2333984375 c 1
 413.150390625 -55.439453125 413.358398438 -55.517578125 412.31640625 -55.2744140625 c 0
 379.9609375 -47.7470703125 347.358398438 -39.7890625 318.227539062 -24.484375 c 0
 318.05859375 -24.39453125 l 1
 317.879882812 -24.3271484375 l 0
 272.311523438 -6.9169921875 236.477539062 27.5 201.963867188 61.875 c 1
 202.668945312 61.068359375 202.901367188 60.6884765625 202.25390625 61.5419921875 c 0
 181.46875 88.8955078125 157.634765625 115.223632812 148.516601562 148.022460938 c 0
 148.436523438 148.309570312 l 1
 148.305664062 148.579101562 l 0
 130.95703125 183.911132812 125.517578125 223.966796875 124.533203125 263.353515625 c 1
 124.512695312 262.282226562 124.458007812 262.000976562 124.52734375 263.069335938 c 0
 125.689453125 281.349609375 120.176757812 287.954101562 126.602539062 303.237304688 c 0
 126.772460938 303.641601562 l 1
 126.828125 304.076171875 l 0
 132.088867188 345.428710938 168.209960938 373.505859375 206.784179688 387.349609375 c 1
 229.4140625 387.541992188 255.135742188 392.477539062 274.641601562 381.032226562 c 0
 275.12890625 380.745117188 l 1
 275.684570312 380.643554688 l 0
 294.2109375 377.229492188 303.365234375 360.754882812 322.580078125 348.431640625 c 1
 328.924804688 332.345703125 340.01953125 319.0390625 339.422851562 303.524414062 c 0
 339.400390625 302.956054688 l 1
 339.57421875 302.415039062 l 0
 345.239257812 284.828125 335.25 267.583984375 330.961914062 247.1875 c 1
 321.124023438 234.908203125 311.55859375 218.950195312 296.693359375 213.2265625 c 0
 296.280273438 213.067382812 l 1
 295.924804688 212.801757812 l 0
 273.676757812 196.173828125 246.419921875 191.419921875 217.892578125 193.564453125 c 1
 211.783203125 196.110351562 204.166992188 198.517578125 202.071289062 192.384765625 c 0
 199.465820312 184.766601562 211.086914062 171.23828125 215.741210938 165.592773438 c 1
 227.893554688 145.088867188 245.176757812 128.436523438 262.090820312 112.073242188 c 0
 262.203125 111.96484375 l 1
 262.326171875 111.8671875 l 0
 285.896484375 93.146484375 312.352539062 77.361328125 340.26171875 65.6650390625 c 0
 340.344726562 65.6298828125 l 1
 340.430664062 65.5986328125 l 0
 373.03125 54.0498046875 414.729492188 45.1640625 453.44140625 50.2490234375 c 1
 499.154296875 46.7236328125 549.220703125 74.419921875 589.7109375 100.974609375 c 0
 590.091796875 101.224609375 l 1
 590.387695312 101.569335938 l 0
 624.870117188 149.182731756 664.587890625 213.488998279 670.76171875 287.194335938 c 1
 678.12109375 312.663085938 672.749023438 338.240234375 672.099609375 362.913085938 c 0
 672.086914062 363.418945312 l 1
 671.918945312 363.896484375 l 0
 664.978515625 383.620117188 665.161132812 407.637695312 652.353515625 427.439453125 c 1
 652.868164062 426.5 653.0234375 426.0546875 652.579101562 427.030273438 c 0
 638.297292957 446.089860501 620.633789062 496.909179688 594 509.33984375 c 0
 591.91015625 510.314453125 589.784179688 511.299804688 587.62109375 512.299804688 c 1
 588.42578125 511.592773438 588.54837184 511.102187301 587.962890625 511.999023438 c 0
 569.683023091 540 524.967773438 540.687300837 493.916992188 558.258789062 c 1
 494.89453125 557.821289062 495.228515625 557.598632812 494.280273438 558.096679688 c 0
 475.256835938 568.079101562 453.833984375 559.573242188 439.280273438 567.4375 c 0
 439.15625 567.50390625 l 1
 439.025390625 567.560546875 l 0
 428.0390625 572.298828125 427.7109375 584.978515625 430.129882812 597.171875 c 1
 496.413085938 688.221679688 561.826171875 783.579101562 627.782226562 876.26953125 c 0
 631.395507812 881.345703125 l 1
 313.926757812 881.345703125 l 1
 313.735351562 881.323242188 l 0
 296.25390625 879.219726562 274.047851562 886.49609375 255.689453125 877.043945312 c 1
 256.672851562 877.466796875 257.10546875 877.573242188 256.094726562 877.216796875 c 0
 233.533203125 869.28125 243.260742188 839.72265625 230.233398438 831.310546875 c 0
 229.59765625 830.900390625 l 1
 229.212890625 830.250976562 l 0
 221.420898438 817.115234375 201.06640625 814.984375 187.069335938 823.537109375 c 0
 178.893554688 828.532226562 173.356445312 836.379882812 173.99609375 848.640625 c 1
 195.04296875 903.059570312 221.247070312 958.479492188 244.376953125 1013.61132812 c 1
 249.658203125 1027.2890625 254.26953125 1039.43457031 267.147460938 1040.97460938 c 1
688.361328125 142.677734375 m 0
 695.671875 189.60546875 754.961914062 166.359375 749.8671875 135.66015625 c 0
 739.462890625 94.4501953125 686.220703125 111.750976562 688.361328125 142.677734375 c 0
759.96484375 133.333007812 m 2
 760.017578125 133.541015625 l 1
 760.051757812 133.752929688 l 0
 767.487304688 178.565429688 687.484375 204.354492188 678.090820312 144.053710938 c 0
 678.057617188 143.834960938 l 1
 678.041992188 143.61328125 l 0
 675.049804688 100.388671875 746.318359375 79.28125 759.96484375 133.333007812 c 2
529.63671875 979.921875 m 0
 518.122070312 943.35546875 470.504882812 967.227539062 468.734375 988.321289062 c 1
 476.08984375 1008.68652344 487.666992188 1018.125 499.5 1018.48535156 c 0
 520.9140625 1016.74023438 534.32421875 998.521484375 529.63671875 979.921875 c 0
500.053710938 1028.83496094 m 2
 499.763671875 1028.85839844 l 1
 499.473632812 1028.84960938 l 0
 480.793945312 1028.27929688 465.049804688 1011.38867188 458.58203125 990.481445312 c 0
 458.3359375 989.688476562 l 1
 458.350585938 988.857421875 l 0
 458.94921875 955.177734375 524.291992188 928.455078125 539.563476562 976.955078125 c 0
 539.609375 977.098632812 l 1
 539.646484375 977.245117188 l 0
 546.009765625 1002.50683594 527.682617188 1026.58203125 500.053710938 1028.83496094 c 2
EndSplineSet
Validated: 524325
EndChar

StartChar: four
Encoding: 52 52 6
Width: 1024
VWidth: 0
Flags: HMW
HStem: -57 6<570 733 570 733 570 734 570 734 570 734> 160 6<238 543 239 537 537 537> 257 6<276 537> 957 6<570 570 571 571>
VStem: 454 6<902 903 902 903 902 903> 537 6<160 166 263 428 263 263> 606 6<944 944> 682 6<113 160 113 160 114 160 114 165 286 501 286 287>
LayerCount: 2
Fore
SplineSet
512.734375 26.6318359375 m 4
 493.358398438 30.3046875 476.279296875 16.806640625 472.868164062 -0.7724609375 c 5
 461.232421875 -20.5673828125 475.2578125 -40.9111328125 486.197265625 -53.3232421875 c 4
 486.934570312 -54.162109375 l 5
 488.029296875 -54.39453125 l 4
 518.393554688 -60.8525390625 549.97265625 -55.53515625 579.682617188 -57.234375 c 4
 579.803710938 -57.2431640625 l 5
 579.924804688 -57.2392578125 l 4
 633.951171875 -56.4541015625 688.858398438 -58.82421875 742.74609375 -56.06640625 c 4
 743.458984375 -56.029296875 l 5
 744.094726562 -55.708984375 l 4
 769.63671875 -42.8408203125 772.56640625 -8.2890625 758.1875 12.806640625 c 4
 758.103515625 12.9306640625 l 5
 758.0078125 13.046875 l 4
 746.352539062 27.2529296875 730.268554688 28.359375 714.111328125 26.65234375 c 4
 713.997070312 26.640625 l 5
 713.887695312 26.6201171875 l 4
 699.80078125 24.1728515625 692.221679688 42.1201171875 694.819335938 56.259765625 c 4
 694.875 56.560546875 l 5
 694.875 166.100585938 l 5
 745.427734375 172.233398438 789.706054688 191.321289062 832.7578125 214.139648438 c 4
 832.846679688 214.188476562 l 5
 832.932617188 214.239257812 l 4
 855.3203125 227.887695312 877.237304688 242.9140625 896.638671875 260.973632812 c 4
 897.515625 261.791015625 l 5
 897.681640625 262.979492188 l 4
 900.580078125 283.61328125 879.405273438 296.346679688 872.95703125 309.643554688 c 4
 872.73828125 310.088867188 l 5
 872.403320312 310.454101562 l 4
 862.637695312 321.0859375 856.69140625 342.146484375 838.077148438 346.829101562 c 4
 836.745117188 347.1640625 l 5
 835.555664062 346.473632812 l 4
 813.33984375 333.581054688 795.057617188 312.5 772.865234375 300.791015625 c 4
 748.219726562 288.2265625 721.557617188 278.091796875 694.875 273.23828125 c 5
 694.875 518.783203125 l 5
 694.575195312 519.44921875 l 4
 688.17578125 533.579101562 676.870117188 542.55859375 662.000976562 546.534179688 c 4
 643.62109375 551.321289062 626.31640625 538.703125 617.3828125 525.717773438 c 4
 616.962890625 525.107421875 l 5
 616.836914062 524.375976562 l 4
 609.991210938 484.60546875 603.70703125 470.565429688 562.75390625 467.138671875 c 4
 562.184570312 467.091796875 l 5
 561.66015625 466.858398438 l 4
 533.120117188 454.154296875 544.462890625 418.5234375 542.500976562 398.752929688 c 4
 542.484375 398.587890625 l 5
 542.484375 272.62890625 l 5
 278.170898438 272.62890625 l 5
 267.397460938 279.786132812 272.94140625 290.31640625 284.0078125 296.146484375 c 4
 284.328125 296.315429688 l 5
 284.606445312 296.548828125 l 4
 326.447265625 331.668945312 371.296875 364.817382812 405.430664062 408.994140625 c 5
 431.853515625 441.76953125 460.14453125 473.69921875 482.075195312 510.489257812 c 5
 528.930664062 584.979492188 566.834960938 666.028320312 590.130859375 751.137695312 c 4
 590.172851562 751.29296875 l 5
 590.200195312 751.453125 l 4
 597.403320312 793.034179688 612.3203125 833.720703125 612.786132812 877.583984375 c 4
 615.544921875 910.620117188 620.748046875 944.821289062 616.654296875 978.375976562 c 4
 616.579101562 979.005859375 l 5
 616.27734375 979.564453125 l 4
 603.028320312 1004.24511719 570.881835938 994.276367188 551.969726562 996.135742188 c 4
 551.739257812 996.159179688 l 5
 551.506835938 996.149414062 l 4
 525.25 995.12109375 497.31640625 998.780273438 470.876953125 993.30859375 c 4
 470.33203125 993.196289062 l 5
 469.8515625 992.9140625 l 4
 449.305664062 980.869140625 458.515625 955.8671875 456.807617188 940.802734375 c 4
 456.782226562 940.57421875 l 5
 456.786132812 940.342773438 l 4
 458.129882812 881.493164062 453.888671875 822.635742188 442.620117188 764.903320312 c 4
 432.279296875 734.241210938 429.063476562 702.77734375 415.4296875 674.592773438 c 4
 415.297851562 674.319335938 l 5
 415.215820312 674.0234375 l 4
 405.026367188 637.241210938 385.15625 604.372070312 368.520507812 569.564453125 c 4
 327.610351562 503.875 279.782226562 442.076171875 220.845703125 391.939453125 c 4
 220.706054688 391.821289062 l 5
 220.579101562 391.6875 l 4
 194.796875 364.431640625 168.34765625 337.33984375 147.80078125 305.14453125 c 5
 119.998046875 262.736328125 100.299804688 215.663085938 85.5615234375 167.666992188 c 4
 78.9384765625 153.362304688 89.3720703125 137.747070312 97.13671875 128.602539062 c 4
 97.263671875 128.454101562 l 5
 97.4072265625 128.3203125 l 4
 109.659179688 116.885742188 127.868164062 115.654296875 143.247070312 118.0390625 c 4
 143.4140625 118.064453125 l 5
 143.577148438 118.107421875 l 4
 158.532226562 121.985351562 174.375 127.186523438 182.141601562 143.58984375 c 4
 194.796875 160.55859375 214.819335938 169.141601562 235.806640625 165.788085938 c 4
 236.0703125 165.745117188 l 5
 542.422851562 165.745117188 l 5
 541.766601562 120.942382812 544.10546875 80.44140625 541.296875 38.373046875 c 5
 541.296875 38.373046875 524.6484375 25.1484375 512.734375 26.6318359375 c 4
775.979492188 294.7890625 m 4
 799.251953125 307.071289062 817.193359375 327.5703125 837.727539062 339.907226562 c 5
 848.821289062 336.080078125 856.2109375 318.30078125 866.875 306.693359375 c 5
 875.033203125 289.87109375 891.830078125 281.524414062 891.134765625 265.088867188 c 5
 872.504882812 248.037109375 851.263671875 233.33203125 829.4140625 220.012695312 c 5
 852.053710938 232.896484375 852.604492188 232.3125 829.591796875 220.112304688 c 4
 786.185546875 197.10546875 739.903320312 177.65625 691.139648438 172.487304688 c 4
 688.116210938 172.166992188 l 5
 688.116210938 57.224609375 l 5
 685.896484375 42.5 692.734375 16.0859375 715.044921875 19.9619140625 c 5
 689.245117188 16.3623046875 688.916992188 17.1943359375 714.821289062 19.9306640625 c 4
 730.459960938 21.58203125 743.2734375 20.3486328125 752.78125 8.7587890625 c 5
 737.168945312 29.609375 737.931640625 30.5234375 752.6015625 8.9990234375 c 4
 765.041015625 -9.2490234375 762.27734375 -38.185546875 741.676757812 -49.353515625 c 5
 689.854492188 -51.93359375 633.668945312 -49.697265625 579.825195312 -50.48046875 c 5
 605.868164062 -51.03515625 606.073242188 -51.974609375 580.069335938 -50.486328125 c 4
 549.62890625 -48.74609375 519.215820312 -53.7861328125 490.525390625 -48.0078125 c 5
 479.782226562 -35.3056640625 469.807617188 -17.8544921875 478.921875 -3.86328125 c 4
 479.314453125 -3.2587890625 l 5
 479.428710938 -2.544921875 l 4
 481.825195312 12.671875 496.393554688 22.8486328125 511.58203125 19.9716796875 c 4
 511.6875 19.9501953125 l 5
 511.793945312 19.9375 l 4
 525.649414062 18.212890625 542.583984375 19.6318359375 547.903320312 37.1669921875 c 4
 548.015625 37.53515625 l 5
 548.041992188 37.921875 l 4
 550.935546875 81.2705078125 548.383789062 125.685546875 549.243164062 169.059570312 c 4
 549.311523438 172.504882812 l 5
 236.338867188 172.504882812 l 5
 262.305664062 170.442382812 262.595703125 168.3515625 236.873046875 172.462890625 c 4
 213.291992188 176.231445312 190.577148438 166.209960938 176.522460938 147.36328125 c 4
 176.3203125 147.092773438 l 5
 176.176757812 146.787109375 l 4
 169.8515625 133.430664062 156.737304688 128.504882812 141.879882812 124.651367188 c 5
 167.389648438 129.922851562 167.950195312 128.708984375 142.2109375 124.71875 c 4
 127.7265625 122.473632812 111.899414062 124.041015625 102.020507812 133.26171875 c 5
 120 114.416015625 119.149414062 113.122070312 102.291015625 132.978515625 c 4
 94.5888671875 142.048828125 87.2724609375 155.272460938 91.791015625 165.034179688 c 4
 91.8876953125 165.2421875 l 5
 91.9560546875 165.461914062 l 4
 106.571289062 213.060546875 126.080078125 259.68359375 153.477539062 301.473632812 c 5
 173.58203125 332.9765625 199.635742188 359.7109375 225.491210938 387.041992188 c 5
 206.591796875 369.115234375 205.384765625 369.913085938 225.225585938 386.790039062 c 4
 284.87890625 437.5390625 333.20703125 500.073242188 374.358398438 566.150390625 c 4
 374.458007812 566.309570312 l 5
 374.540039062 566.479492188 l 4
 390.97265625 600.865234375 411.21484375 634.267578125 421.73046875 672.21875 c 5
 412.544921875 647.84375 410.173828125 648.201171875 421.515625 671.650390625 c 4
 435.813476562 701.209960938 439.088867188 733.28125 449.096679688 762.956054688 c 4
 449.168945312 763.16796875 l 5
 449.211914062 763.389648438 l 4
 460.583984375 821.654296875 464.897460938 881.215820312 463.544921875 940.498046875 c 5
 462.372070312 914.475585938 460.588867188 914.158203125 463.5234375 940.040039062 c 4
 465.69921875 959.22265625 457.4375 976.788085938 472.787109375 986.801757812 c 5
 496.7578125 991.515625 524.87109375 988.340820312 551.771484375 989.393554688 c 5
 525.734375 990.161132812 525.385742188 991.956054688 551.30859375 989.408203125 c 4
 573.958007812 987.181640625 598.44140625 996.069335938 610.021484375 976.936523438 c 5
 613.579101562 945.73828125 608.8125 911.21484375 606.040039062 878.024414062 c 4
 606.029296875 877.900390625 l 5
 606.028320312 877.778320312 l 4
 605.578125 835.408203125 590.887695312 795.021484375 583.541015625 752.60546875 c 5
 589.20703125 778.030273438 590.486328125 778.045898438 583.610351562 752.921875 c 4
 560.508789062 668.513671875 522.962890625 588.1875 476.310546875 514.018554688 c 5
 454.69140625 477.751953125 426.81640625 446.29296875 400.125 413.182617188 c 5
 366.8671875 370.140625 321.787109375 336.583984375 280.704101562 302.099609375 c 5
 268.765625 294.90234375 256.30078125 276.85546875 275.701171875 266.28125 c 4
 276.45703125 265.869140625 l 5
 549.244140625 265.869140625 l 5
 549.244140625 398.420898438 l 5
 547.95703125 372.403320312 546.657226562 372.166015625 549.228515625 398.086914062 c 4
 551.615234375 422.141601562 541.419921875 449.506835938 563.887695312 460.44921875 c 5
 606.563476562 464.364257812 616.208984375 481.53125 623.37109375 522.485351562 c 5
 630.947265625 533.053710938 645.94921875 543.73046875 660.296875 539.991210938 c 4
 673.096679688 536.571289062 681.663085938 530.346679688 688.116210938 517.333984375 c 5
 688.116210938 265.294921875 l 5
 692.020507812 265.91015625 l 4
 721.45703125 270.5390625 749.669921875 281.376953125 775.979492188 294.7890625 c 4
647.140625 84.0048828125 m 4
 691.392578125 115.295898438 627.1796875 199.274414062 588.524414062 133.754882812 c 4
 588.27734375 133.337890625 l 5
 588.115234375 132.879882812 l 4
 577.215820312 102.348632812 616.599609375 54.693359375 647.140625 84.0048828125 c 4
640.038085938 91.322265625 m 6
 621.849609375 71.876953125 590.337890625 105.006835938 597.516601562 129.012695312 c 5
 629.827148438 181.305664062 671.061523438 111.907226562 640.95703125 92.0966796875 c 4
 640.451171875 91.763671875 l 5
 640.038085938 91.322265625 l 6
541.123046875 828.59375 m 4
 548.284179688 775.836914062 481.72265625 791.819335938 481.68359375 822.970703125 c 5
 490.416992188 860.086914062 532.787109375 856.594726562 541.123046875 828.59375 c 4
551.083984375 830.598632812 m 6
 551.033203125 830.923828125 l 5
 550.9375 831.243164062 l 4
 539.227539062 870.572265625 481.030273438 870.848632812 471.643554688 824.54296875 c 4
 471.560546875 824.134765625 l 5
 471.546875 823.715820312 l 4
 469.814453125 775.286132812 561.68359375 764.619140625 551.083984375 830.598632812 c 6
EndSplineSet
Validated: 524325
EndChar

StartChar: five
Encoding: 53 53 7
Width: 868
VWidth: 0
Flags: MW
HStem: 112 6 623 6<446 447> 793 6<260 260> 951 6<186 186 186 596 185 596>
VStem: 158 6<394 920 394 920 397 919> 254 6<585 793 585 799>
LayerCount: 2
Fore
SplineSet
686 744 m 2
 699 729 717 734 733 741 c 1
 733 741 l 1
 734 741 l 1
 756 761 733 788 727 806 c 1
 727 806 l 1
 727 806 l 1
 707 851 690 898 668 942 c 1
 668 942 l 1
 668 942 l 1
 650 965 618 954 596 957 c 1
 596 957 l 1
 185 957 l 1
 185 957 l 1
 166 954 155 938 158 919 c 2
 158 395 l 1
 158 394 l 1
 180 363 228 362 254 388 c 2
 255 389 l 1
 255 389 l 1
 267 407 275 427 289 443 c 1
 289 443 l 1
 290 443 l 1
 325 491 385 522 445 513 c 0
 498 504 543 467 570 421 c 0
 592 383 607 341 610 297 c 0
 617 230 601 160 561 106 c 0
 544 81 520 61 494 46 c 0
 445 21 383 24 338 57 c 0
 327 67 310 74 312 82 c 0
 329 107 337 136 329 165 c 0
 318 217 260 253 208 239 c 0
 164 229 127 184 136 137 c 1
 136 137 l 1
 136 137 l 1
 147 98 161 56 194 29 c 0
 235 -11 287 -40 343 -54 c 0
 382 -65 424 -68 464 -63 c 0
 513 -58 560 -40 602 -15 c 1
 602 -15 l 1
 602 -15 l 1
 642 12 681 45 706 87 c 0
 740 136 758 194 764 253 c 0
 768 298 762 344 749 387 c 0
 735 428 716 464 694 495 c 1
 694 495 l 1
 694 495 l 1
 657 540 611 578 558 602 c 0
 523 617 485 625 447 629 c 1
 447 629 l 1
 447 629 l 1
 416 630 386 628 356 621 c 0
 322 615 288 602 260 585 c 1
 260 793 l 1
 642 794 l 1
 656 788 686 744 686 744 c 2
690 492 m 1
 710 461 729 426 743 385 c 0
 756 343 761 297 758 253 c 0
 752 195 734 137 701 90 c 1
 701 90 l 1
 701 90 l 1
 676 49 639 17 599 -10 c 1
 616 1 616 0 599 -10 c 1
 558 -35 512 -52 464 -57 c 0
 424 -62 383 -60 344 -49 c 0
 289 -35 239 -6 198 34 c 1
 198 34 l 1
 198 34 l 1
 166 60 153 99 142 138 c 1
 146 119 146 119 142 138 c 1
 134 181 169 223 210 233 c 0
 258 246 312 213 323 164 c 0
 330 137 323 108 307 85 c 1
 307 85 l 1
 306 84 l 1
 301 69 327 60 334 53 c 1
 334 52 l 1
 334 52 l 1
 381 18 445 15 496 41 c 1
 496 41 l 1
 497 41 l 1
 524 57 547 77 565 103 c 0
 606 158 623 230 616 298 c 0
 613 343 598 386 575 424 c 0
 548 472 501 510 446 519 c 0
 384 528 321 497 285 447 c 1
 297 462 298 462 285 447 c 1
 271 430 261 409 250 393 c 0
 227 369 186 370 164 397 c 1
 164 920 l 1
 164 920 l 1
 160 935 171 949 186 951 c 1
 166 950 166 951 186 951 c 1
 596 951 l 1
 576 952 577 953 596 951 c 1
 621 948 646 959 663 939 c 1
 685 895 702 849 722 804 c 1
 715 822 715 823 721 804 c 0
 728 782 746 763 730 746 c 1
 716 740 696 741 685 754 c 1
 684 754 l 1
 684 754 l 1
 671 765 670 796 644 799 c 1
 644 799 l 1
 254 799 l 1
 254 574 l 1
 258 577 l 2
 288 596 322 610 357 616 c 1
 357 616 l 1
 357 616 l 1
 386 623 416 624 446 623 c 1
 426 624 427 625 446 623 c 1
 483 619 522 612 556 597 c 0
 608 574 654 536 690 492 c 1
409 866 m 0
 431 843 466 886 429 903 c 1
 429 903 l 1
 429 903 l 1
 410 909 395 880 409 866 c 0
413 870 m 0
 403 881 415 901 427 897 c 1
 429 902 443 837 413 870 c 0
618 74 m 0
 646 66 667 117 622 117 c 1
 622 117 l 1
 622 117 l 1
 600 115 598 79 618 74 c 0
623 112 m 0
 660 112 639 75 621 80 c 0
 607 84 608 110 623 112 c 0
EndSplineSet
Validated: 37
EndChar

StartChar: six
Encoding: 54 54 8
Width: 1024
VWidth: 0
Flags: MW
HStem: -61 6<527 527> 790 6<310 329> 862 6<577 577 577 577 577 577>
VStem: 170 6<376 376> 319 6<599 599> 869 6
LayerCount: 2
Fore
SplineSet
527 -61 m 0
 590 -68 657 -52 713 -22 c 0
 756 3 793 39 822 79 c 0
 854 126 871 182 874 239 c 1
 874 239 l 1
 874 239 l 1
 865 355 819 466 736 521 c 1
 688 558 626 573 566 577 c 0
 529 580 492 571 457 562 c 1
 457 562 l 1
 457 562 l 1
 415 547 373 527 341 495 c 1
 328 528 327 563 325 599 c 0
 327 637 331 676 349 709 c 1
 349 709 l 1
 349 709 l 1
 367 754 401 791 442 818 c 0
 481 846 529 860 577 862 c 1
 577 862 l 1
 577 862 l 1
 594 864 614 861 631 859 c 1
 591 828 580 767 608 725 c 0
 628 694 665 675 702 679 c 0
 746 681 787 717 793 762 c 0
 800 790 792 821 770 841 c 1
 719 902 646 943 567 955 c 0
 532 961 495 960 460 954 c 1
 460 954 l 1
 459 954 l 1
 425 944 390 933 362 909 c 1
 326 886 299 854 274 820 c 1
 274 820 l 1
 274 820 l 1
 241 771 214 717 198 660 c 0
 180 604 171 545 168 487 c 0
 166 450 167 413 170 376 c 0
 180 286 203 197 250 118 c 0
 267 86 290 57 315 31 c 0
 346 -1 383 -28 425 -44 c 0
 458 -56 492 -60 527 -61 c 0
733 516 m 1
 733 516 l 1
 814 462 860 354 869 239 c 1
 869 259 870 259 869 239 c 1
 866 183 848 128 817 82 c 0
 789 42 752 8 710 -16 c 0
 655 -46 591 -62 528 -55 c 1
 527 -55 l 1
 527 -55 l 1
 493 -54 459 -51 427 -39 c 0
 386 -23 349 3 319 35 c 0
 294 60 271 89 255 121 c 1
 255 121 l 1
 255 121 l 1
 209 198 186 288 176 377 c 0
 173 413 172 450 174 487 c 0
 177 545 186 603 204 658 c 0
 220 715 247 768 279 817 c 1
 268 801 267 801 279 817 c 1
 304 850 331 881 366 904 c 1
 367 904 l 1
 367 905 l 1
 394 928 427 938 461 948 c 1
 442 944 442 945 461 948 c 1
 496 954 531 956 566 950 c 0
 643 939 715 897 765 837 c 1
 765 837 l 1
 765 836 l 1
 785 817 793 789 787 763 c 1
 787 763 l 1
 787 763 l 1
 782 721 743 687 702 685 c 1
 702 685 l 1
 702 685 l 1
 667 681 632 700 613 729 c 0
 585 770 599 832 641 858 c 2
 649 863 l 1
 640 864 l 2
 618 865 599 871 577 868 c 1
 597 870 597 869 577 868 c 1
 528 866 479 851 439 823 c 0
 398 796 363 758 344 711 c 1
 352 729 353 728 344 711 c 1
 325 676 321 637 319 599 c 1
 319 599 l 1
 319 599 l 1
 321 562 321 524 337 489 c 2
 339 485 l 1
 342 488 l 2
 373 521 416 542 459 557 c 1
 440 551 440 552 459 557 c 1
 494 566 530 574 566 571 c 0
 625 567 686 552 733 516 c 1
597 58 m 1
 597 58 l 1
782 108 m 1
 782 109 l 1
 782 109 l 1
 764 144 734 121 743 89 c 1
 743 88 l 1
 743 88 l 1
 757 68 788 86 782 108 c 1
776 106 m 1
 780 89 757 79 748 91 c 1
 741 119 762 133 776 106 c 1
303 755 m 0
 330 739 357 796 310 796 c 1
 310 796 l 1
 310 796 l 1
 288 794 286 763 303 755 c 0
310 790 m 0
 348 790 324 750 306 760 c 1
 306 760 l 1
 306 760 l 1
 294 766 296 788 310 790 c 0
701 191 m 0
 712 235 709 282 697 325 c 0
 682 375 650 425 602 449 c 0
 553 475 491 469 447 436 c 0
 400 401 373 346 364 289 c 0
 361 261 359 233 365 205 c 0
 375 150 403 94 451 63 c 1
 435 74 435 75 451 63 c 1
 493 32 554 27 600 53 c 1
 583 44 582 45 600 53 c 1
 654 79 689 134 701 191 c 0
695 193 m 0
 683 137 649 83 597 58 c 1
 597 58 l 1
 597 58 l 1
 553 33 495 39 454 69 c 1
 454 69 l 1
 454 69 l 1
 408 99 381 152 371 206 c 0
 365 233 366 261 369 288 c 0
 378 343 405 397 450 431 c 0
 492 463 552 468 599 443 c 0
 645 420 677 373 692 324 c 0
 704 282 705 236 695 193 c 0
EndSplineSet
Validated: 37
EndChar

StartChar: seven
Encoding: 55 55 9
Width: 1024
VWidth: 0
Flags: MW
HStem: -71 6<276 517 278 517 278 518 278 518> 726 6<163 172.5> 774 6<244 670 244 656 656 656> 945 6
VStem: 322 6<43 52 52 52 52 52>
LayerCount: 2
Fore
SplineSet
738 703 m 0
 794 769 848 836 892 911 c 1
 892 911 l 1
 892 912 l 1
 904 939 871 954 851 950 c 1
 224 950 l 1
 224 950 l 1
 205 947 198 930 193 915 c 0
 171 863 148 811 126 759 c 1
 126 758 l 1
 126 757 l 2
 127 738 144 725 163 726 c 0
 182 726 198 740 203 758 c 0
 209 774 227 776 244 774 c 1
 244 774 l 1
 656 774 l 1
 602 722 558 666 516 606 c 0
 477 549 445 488 417 425 c 0
 391 371 373 312 356 255 c 0
 338 189 329 120 322 52 c 1
 322 52 l 1
 322 52 l 1
 322 34 320 12 301 10 c 0
 284 11 263 12 253 -8 c 0
 240 -30 250 -64 276 -71 c 1
 276 -71 l 1
 518 -71 l 1
 518 -70 l 1
 545 -58 554 -19 530 1 c 1
 525 -3 476 18 475 20 c 0
 465 37 477 58 479 80 c 0
 498 208 538 333 591 451 c 0
 624 526 669 603 716 672 c 0
 723 682 731 693 738 703 c 0
733 705 m 1
 728 698 l 2
 673 621 625 539 586 453 c 0
 534 334 493 210 474 81 c 1
 474 81 l 1
 474 81 l 1
 473 62 463 40 469 18 c 1
 469 18 l 1
 469 18 l 1
 481 -8 514 11 526 -3 c 1
 526 -3 l 1
 527 -3 l 1
 547 -20 541 -54 517 -65 c 1
 278 -65 l 1
 258 -59 247 -30 258 -11 c 1
 258 -11 l 1
 259 -11 l 1
 267 5 284 5 301 4 c 1
 301 4 l 1
 302 4 l 2
 328 6 328 35 328 52 c 1
 327 32 326 33 328 52 c 1
 335 120 344 187 362 253 c 0
 379 310 396 368 422 422 c 0
 450 485 482 546 521 602 c 0
 564 663 611 723 665 775 c 2
 670 780 l 1
 244 780 l 1
 264 779 263 777 244 780 c 1
 227 782 205 779 198 759 c 1
 198 759 l 1
 198 759 l 1
 194 744 179 732 163 732 c 1
 163 732 l 1
 163 732 l 1
 147 731 133 741 132 757 c 1
 154 808 176 861 198 913 c 1
 198 913 l 1
 198 913 l 1
 203 928 210 943 225 945 c 1
 205 943 204 945 224 945 c 2
 851 945 l 1
 852 945 l 1
 871 949 896 934 887 914 c 1
 896 931 897 931 887 914 c 1
 843 840 789 772 733 706 c 1
 733 705 l 1
493 863 m 0
 486 874 492 888 503 890 c 0
 546 888 509 845 493 863 c 0
488 860 m 1
 489 860 l 1
 514 832 556 894 503 896 c 2
 502 896 l 1
 502 896 l 1
 485 893 479 873 488 860 c 1
381 67 m 1
 381 66 l 1
 401 35 452 85 406 99 c 1
 406 99 l 1
 404 99 l 2
 385 102 375 82 381 67 c 1
386 69 m 1
 382 82 391 94 403 93 c 0
 439 82 400 49 386 69 c 1
EndSplineSet
Validated: 37
EndChar

StartChar: eight
Encoding: 56 56 10
Width: 1024
VWidth: 0
Flags: MW
HStem: -59 6<542 562.5> 40 6<483 483> 416 6<461 477>
VStem: 249 6 809 6<687 687>
LayerCount: 2
Fore
SplineSet
655 336 m 0
 685 307 709 271 724 233 c 1
 721 203 719 174 702 150 c 1
 702 150 l 1
 701 150 l 1
 681 109 643 77 601 59 c 0
 564 44 523 40 484 46 c 0
 445 53 406 69 377 96 c 0
 349 121 328 155 319 191 c 0
 314 220 312 250 321 278 c 1
 321 278 l 1
 321 278 l 1
 337 346 395 400 462 416 c 1
 492 416 560 412 655 336 c 0
575 395 m 0
 565 399 557 404 547 408 c 1
 547 408 l 1
 546 408 l 1
 518 415 490 422 461 422 c 1
 461 422 l 1
 461 422 l 1
 391 406 332 349 315 279 c 1
 320 298 321 298 315 279 c 1
 305 250 309 219 314 190 c 1
 314 190 l 1
 314 190 l 1
 323 152 344 118 373 92 c 0
 403 64 443 47 483 40 c 0
 523 34 565 39 603 54 c 0
 646 72 685 103 707 146 c 1
 697 129 696 130 707 146 c 1
 725 172 727 203 730 233 c 2
 730 234 l 1
 730 234 l 1
 714 274 689 310 659 340 c 1
 659 340 l 1
 659 340 l 1
 634 362 606 381 575 395 c 0
307 530 m 0
 329 501 358 480 388 461 c 1
 388 461 l 1
 389 461 l 2
 394 460 396 458 397 458 c 1
 392 455 383 453 376 450 c 0
 323 431 275 396 240 352 c 0
 209 316 190 271 187 224 c 0
 185 194 191 163 200 135 c 1
 200 135 l 1
 200 135 l 1
 218 90 247 51 287 22 c 1
 325 -11 373 -29 419 -45 c 1
 420 -45 l 1
 420 -45 l 1
 460 -54 501 -61 543 -59 c 0
 582 -59 621 -52 658 -41 c 1
 658 -41 l 1
 658 -41 l 1
 705 -25 751 -4 788 30 c 0
 828 64 858 111 871 162 c 0
 881 208 875 257 855 300 c 0
 839 335 815 365 787 390 c 0
 764 412 735 427 708 442 c 1
 707 442 l 1
 707 442 l 1
 694 448 679 452 667 457 c 1
 693 470 714 489 736 507 c 1
 736 507 l 1
 736 507 l 1
 763 533 784 565 797 601 c 0
 808 628 814 657 815 686 c 0
 817 737 801 788 775 831 c 0
 755 863 730 891 697 911 c 0
 621 966 518 978 431 946 c 0
 384 929 341 899 309 861 c 0
 273 818 251 763 249 707 c 0
 245 644 266 579 307 530 c 0
391 466 m 1
 362 485 333 506 311 534 c 1
 311 534 l 1
 311 534 l 1
 271 582 250 645 254 707 c 0
 256 762 278 815 314 857 c 0
 345 895 387 923 433 940 c 0
 518 971 619 960 693 906 c 1
 694 906 l 1
 694 906 l 1
 726 887 750 859 770 828 c 0
 796 786 811 736 809 687 c 0
 808 659 803 629 792 603 c 0
 779 568 759 537 732 511 c 1
 746 524 747 524 732 511 c 1
 709 491 685 472 658 460 c 2
 652 457 l 1
 658 454 l 2
 674 447 690 442 705 436 c 1
 687 444 688 445 705 436 c 1
 732 421 760 408 783 386 c 0
 811 361 835 332 850 298 c 0
 869 257 875 209 865 164 c 0
 853 114 824 69 785 35 c 0
 749 2 702 -19 656 -35 c 1
 675 -29 676 -29 657 -35 c 0
 620 -46 581 -53 543 -53 c 2
 542 -53 l 1
 542 -53 l 1
 501 -55 461 -49 421 -40 c 1
 440 -45 439 -46 421 -40 c 1
 375 -24 328 -7 291 25 c 1
 291 26 l 1
 290 26 l 1
 251 54 224 93 206 137 c 1
 213 119 212 118 206 137 c 1
 197 165 191 194 193 223 c 0
 196 269 215 314 245 349 c 0
 280 392 326 425 378 444 c 1
 378 444 l 1
 378 444 l 1
 386 448 424 458 391 466 c 1
703 787 m 0
 717 762 728 733 723 705 c 1
 723 705 l 1
 723 705 l 1
 720 669 698 635 669 613 c 1
 669 613 l 1
 669 613 l 1
 650 597 625 588 602 581 c 1
 544 578 487 595 445 633 c 0
 423 653 404 678 394 705 c 1
 394 705 l 1
 393 705 l 1
 383 719 391 738 394 756 c 0
 406 793 436 823 470 841 c 0
 513 860 561 867 606 853 c 1
 606 853 l 1
 607 853 l 1
 646 845 680 819 703 787 c 0
388 757 m 1
 388 757 l 1
 385 741 377 719 388 703 c 1
 399 674 419 651 441 629 c 0
 485 589 544 572 602 575 c 2
 603 575 l 1
 603 575 l 1
 627 582 653 592 673 609 c 1
 658 597 657 597 673 609 c 1
 704 631 726 667 729 705 c 1
 726 686 726 686 729 705 c 1
 734 736 722 764 708 790 c 1
 708 790 l 1
 708 790 l 1
 684 823 649 849 608 858 c 1
 627 853 627 852 608 858 c 1
 561 872 511 866 467 846 c 1
 467 846 l 1
 467 846 l 1
 432 827 401 796 388 757 c 1
731 47 m 0
 763 45 753 101 724 90 c 0
 702 84 705 46 731 47 c 0
730 53 m 2
 713 52 708 80 725 84 c 1
 726 84 l 1
 726 84 l 1
 746 92 754 51 731 53 c 1
 731 53 l 1
 730 53 l 2
362 812 m 0
 359 796 334 796 330 810 c 1
 336 838 364 843 362 812 c 0
367 811 m 1
 367 811 l 1
 369 851 330 844 324 811 c 1
 324 810 l 1
 324 810 l 1
 329 788 363 789 367 811 c 1
EndSplineSet
Validated: 37
EndChar

StartChar: nine
Encoding: 57 57 11
Width: 1024
VWidth: 0
Flags: MW
HStem: 113 6<735.5 750 735.5 750> 331 6<511 511> 959 6<561 561 562 562>
VStem: 182 6<631 631> 263 6<124 124> 350 6<653 669.5> 732 6<298 298> 884 6<428 429>
LayerCount: 2
Fore
SplineSet
689 722 m 1
 689 722 l 1
375 545 m 1
 374 545 l 1
 375 545 l 1
511 331 m 0
 563 332 614 346 660 371 c 1
 660 371 l 1
 660 371 l 1
 679 383 701 397 717 412 c 1
 729 375 734 337 732 298 c 0
 729 211 679 127 603 83 c 1
 603 83 l 1
 603 83 l 1
 551 50 486 43 426 50 c 1
 456 75 472 114 462 151 c 0
 454 190 421 221 382 228 c 0
 347 234 310 222 287 195 c 0
 271 175 259 151 263 124 c 1
 262 86 295 61 317 37 c 1
 317 37 l 1
 317 37 l 1
 356 -2 408 -25 460 -40 c 1
 460 -40 l 1
 460 -40 l 1
 515 -52 576 -57 630 -35 c 0
 667 -22 701 1 730 27 c 2
 731 28 l 1
 731 28 l 1
 754 51 777 75 793 104 c 0
 837 167 861 241 876 315 c 0
 884 352 887 390 890 428 c 1
 890 428 l 1
 890 428 l 1
 891 469 890 510 884 550 c 0
 876 621 856 690 826 755 c 0
 791 824 743 890 675 930 c 0
 641 949 602 964 562 965 c 1
 504 973 444 970 389 948 c 0
 343 929 299 903 265 865 c 0
 236 834 215 797 200 758 c 1
 200 758 l 1
 200 758 l 1
 187 717 177 674 182 631 c 0
 184 583 198 537 220 495 c 1
 220 495 l 1
 221 495 l 1
 243 460 268 425 302 401 c 1
 329 377 363 363 395 349 c 1
 395 349 l 1
 395 349 l 1
 432 337 471 328 511 331 c 0
657 376 m 0
 612 351 561 338 510 337 c 1
 510 337 l 1
 510 337 l 1
 471 334 434 343 397 355 c 1
 415 348 415 347 397 355 c 1
 365 369 332 383 306 406 c 1
 306 406 l 1
 305 406 l 1
 272 430 248 463 226 498 c 1
 236 481 235 481 226 498 c 1
 204 540 190 584 188 631 c 1
 188 631 l 1
 188 632 l 1
 183 674 193 716 206 756 c 1
 199 738 199 738 206 756 c 1
 221 794 241 831 269 861 c 0
 302 898 345 924 391 943 c 0
 445 965 504 967 561 959 c 1
 562 959 l 1
 562 959 l 1
 601 958 638 943 672 924 c 0
 739 885 786 821 821 753 c 0
 850 690 871 620 879 550 c 0
 885 510 885 469 884 428 c 1
 885 448 885 449 884 429 c 0
 881 391 879 353 871 316 c 0
 856 242 831 168 788 106 c 1
 788 106 l 1
 788 106 l 1
 772 78 749 55 726 32 c 1
 740 46 742 45 727 32 c 0
 698 6 665 -16 628 -29 c 0
 575 -51 516 -46 461 -34 c 1
 480 -39 481 -39 462 -34 c 0
 410 -19 359 3 321 41 c 1
 335 27 334 26 321 41 c 1
 299 66 268 90 269 124 c 1
 269 124 l 1
 269 124 l 1
 266 148 276 172 291 191 c 0
 313 216 348 227 381 222 c 0
 418 216 449 187 456 150 c 1
 456 150 l 1
 456 150 l 1
 466 113 449 72 417 50 c 2
 411 46 l 1
 418 45 l 2
 481 36 551 42 606 78 c 1
 589 68 589 68 606 78 c 1
 684 123 735 209 738 298 c 0
 740 339 734 379 721 418 c 2
 720 422 l 1
 716 419 l 2
 699 402 677 389 657 376 c 0
743 157 m 0
 707 156 716 113 749 113 c 2
 750 113 l 1
 750 114 l 1
 774 120 767 159 743 157 c 0
743 151 m 0
 761 152 765 124 749 119 c 1
 722 119 716 150 743 151 c 0
280 791 m 1
 295 771 339 795 311 821 c 0
 293 838 260 810 280 791 c 1
285 795 m 1
 271 807 294 829 307 817 c 0
 329 795 294 781 285 794 c 1
 285 795 l 1
 285 795 l 1
683 721 m 0
 690 689 693 656 688 624 c 1
 688 623 l 1
 688 623 l 1
 686 599 679 576 669 554 c 0
 649 511 615 472 570 457 c 1
 570 457 l 1
 570 457 l 1
 517 434 451 456 414 499 c 0
 401 514 390 530 380 547 c 0
 366 580 355 617 356 653 c 0
 356 686 361 720 374 750 c 0
 392 792 421 831 463 850 c 0
 499 868 544 867 581 851 c 0
 633 826 668 776 683 721 c 0
374 545 m 1
 375 545 l 1
 385 527 397 510 410 495 c 0
 449 450 517 428 573 452 c 1
 555 445 553 446 572 452 c 0
 619 468 653 507 675 551 c 0
 685 574 692 598 694 623 c 1
 692 604 691 604 694 623 c 1
 700 656 696 690 689 722 c 1
 689 722 l 1
 689 722 l 1
 673 778 638 831 584 857 c 0
 545 874 499 874 461 855 c 0
 417 835 386 795 368 752 c 0
 354 721 350 686 350 653 c 0
 349 615 360 579 374 545 c 1
EndSplineSet
Validated: 37
EndChar

StartChar: afii10017
Encoding: 1040 1040 12
Width: 1024
VWidth: 0
Flags: MW
HStem: 110 4 168 6<869 886> 340 5<387 626> 407 5<369 603 369 611>
LayerCount: 2
Fore
SplineSet
699 109 m 0
 762 110 828 108 891 110 c 2
 892 110 l 1
 924 119 920 172 886 174 c 2
 868 174 l 2
 848 173 834 191 830 210 c 0
 738 448 648 687 556 925 c 0
 540 957 488 953 477 919 c 0
 383 675 290 430 196 186 c 1
 183 166 158 176 136 174 c 0
 102 174 96 122 126 111 c 1
 127 110 l 1
 157 106 188 110 218 109 c 0
 244 110 271 106 297 110 c 1
 297 111 l 1
 298 111 l 1
 328 122 321 174 287 174 c 0
 272 171 290 187 291 202 c 1
 307 247 321 292 338 334 c 1
 350 346 369 337 387 340 c 0
 466 340 546 341 624 340 c 1
 640 333 638 312 647 295 c 2
 690 175 l 1
 668 177 650 155 656 133 c 0
 660 111 681 106 699 109 c 0
869 168 m 2
 886 168 l 2
 913 167 917 123 891 115 c 1
 828 113 761 115 698 114 c 0
 682 111 665 118 662 134 c 2
 662 135 l 1
 656 154 673 174 693 169 c 2
 699 167 l 1
 652 297 l 2
 645 310 646 337 626 345 c 1
 625 345 l 2
 546 346 466 346 387 346 c 0
 372 343 348 353 334 338 c 1
 334 337 l 1
 333 337 l 1
 315 293 302 247 286 203 c 1
 286 202 l 2
 286 198 264 164 287 169 c 1
 314 169 320 125 296 116 c 1
 271 112 245 115 218 114 c 1
 234 114 234 113 218 114 c 1
 187 115 159 112 128 116 c 1
 105 126 109 169 136 169 c 2
 137 169 l 2
 156 171 187 160 201 184 c 1
 295 428 389 674 483 918 c 0
 492 947 536 949 550 922 c 1
 543 937 544 938 550 923 c 0
 642 685 733 446 825 208 c 1
 820 223 821 225 824 209 c 0
 828 187 845 167 869 168 c 2
488 719 m 1
 486 726 l 1
 483 719 l 2
 443 616 403 513 362 410 c 1
 360 407 l 1
 611 407 l 1
 610 410 l 1
 570 513 528 616 488 719 c 1
486 710 m 1
 525 610 564 511 603 412 c 1
 369 412 l 1
 409 512 447 611 486 710 c 1
499 817 m 0
 502 794 540 800 536 825 c 0
 530 847 494 839 499 817 c 0
530 824 m 0
 533 806 507 804 505 818 c 0
 502 833 526 839 530 824 c 0
737 228 m 0
 741 206 777 212 774 236 c 2
 774 237 l 1
 768 259 732 250 737 228 c 0
742 229 m 0
 739 244 764 249 768 234 c 1
 768 234 746 202 742 229 c 0
EndSplineSet
Validated: 37
EndChar

StartChar: afii10018
Encoding: 1041 1041 13
Width: 1024
VWidth: 0
Flags: MW
HStem: -147 6<15 87 87 447> -75 6<177 265 177 265 177 265> 284 6<171 177> 357 5<177 403 177 403> 645 6 714 6<11 553 552 553>
VStem: 49 6<-50 611 -50 612> 171 6<-69 284 -69 290 362 645> 541 6<119 119> 660 6<566 566>
LayerCount: 2
Fore
SplineSet
49 -50 m 0
 48 -68 31 -84 13 -80 c 1
 12 -80 l 2
 -6 -82 -14 -97 -15 -112 c 0
 -16 -129 -7 -146 15 -147 c 0
 159 -147 303 -149 447 -147 c 1
 556 -141 656 -58 680 48 c 0
 705 146 664 257 580 315 c 0
 529 353 464 365 402 362 c 2
 177 362 l 1
 177 645 l 1
 286 645 390 646 496 644 c 1
 544 639 587 605 605 560 c 0
 610 551 621 546 631 544 c 0
 646 542 663 548 666 566 c 0
 665 591 649 611 642 633 c 0
 629 659 620 688 605 714 c 1
 604 715 l 2
 588 726 568 718 553 720 c 0
 373 720 191 721 11 720 c 0
 -4 717 -13 704 -14 690 c 0
 -16 673 -8 653 14 651 c 2
 15 651 l 1
 37 655 52 634 49 612 c 2
 49 611 l 2
 49 391 50 170 49 -50 c 0
15 -141 m 0
 -2 -141 -10 -127 -9 -112 c 0
 -9 -99 -2 -88 12 -86 c 1
 34 -90 54 -72 55 -50 c 0
 56 170 55 391 55 611 c 0
 58 634 41 662 14 657 c 1
 -2 659 -10 674 -8 690 c 0
 -7 701 -1 711 11 714 c 0
 191 715 373 714 553 714 c 1
 550 714 549 715 552 714 c 0
 569 711 587 719 600 710 c 1
 613 686 623 657 636 630 c 1
 635 633 635 634 636 631 c 0
 644 608 659 590 660 566 c 0
 658 553 645 547 631 550 c 0
 622 552 615 556 610 563 c 0
 591 609 548 645 497 650 c 1
 496 650 l 2
 388 652 280 650 174 651 c 2
 171 651 l 1
 171 358 l 1
 402 357 l 1
 403 357 l 2
 464 360 527 347 577 310 c 0
 659 254 700 146 675 50 c 0
 651 -54 553 -136 447 -141 c 0
 303 -143 159 -141 15 -141 c 0
380 283 m 0
 463 275 537 204 541 119 c 0
 548 37 488 -42 409 -62 c 0
 363 -74 313 -67 265 -69 c 2
 177 -69 l 1
 177 284 l 1
 245 283 312 286 380 283 c 0
174 290 m 2
 171 290 l 1
 171 -75 l 1
 265 -75 l 2
 313 -73 363 -81 411 -68 c 0
 493 -46 554 35 547 120 c 0
 543 207 467 281 381 289 c 0
 312 292 243 289 174 290 c 2
84 583 m 0
 88 573 98 571 106 574 c 0
 116 578 125 589 118 602 c 1
 117 602 l 1
 104 620 75 603 84 583 c 0
89 585 m 0
 83 598 104 611 113 599 c 1
 113 599 114 583 105 580 c 0
 98 578 91 579 89 585 c 0
537 -31 m 0
 541 -41 552 -42 560 -39 c 0
 570 -35 578 -25 571 -12 c 0
 558 6 528 -11 537 -31 c 0
543 -28 m 1
 537 -15 557 -3 566 -15 c 1
 566 -15 567 -31 558 -34 c 0
 551 -36 545 -35 543 -29 c 2
 543 -28 l 1
EndSplineSet
Validated: 37
EndChar

StartChar: afii10019
Encoding: 1042 1042 14
Width: 1024
VWidth: 0
Flags: MW
HStem: -214 5 -131 7<141 238 141 238 141 238> -54 6<71 80.5> 288 7<134 141> 373 7<141 354 141 354 141 360> 709 7 790 6<-54 396>
VStem: -8 7<-102 667> 134 7<-131 288 -124 288 -124 292 -124 295 380 709> 553 7<93 93>
LayerCount: 2
Fore
SplineSet
396 790 m 0
 404 790 411 791 419 790 c 0
 519 783 611 707 637 610 c 0
 664 522 630 424 562 362 c 1
 535 347 571 336 578 330 c 0
 683 263 731 124 699 5 c 0
 673 -106 575 -198 460 -207 c 1
 363 -210 266 -208 169 -209 c 0
 94 -208 21 -211 -55 -208 c 1
 -84 -199 -84 -148 -51 -143 c 1
 -26 -147 -2 -127 -1 -102 c 0
 0 154 -1 411 -1 667 c 1
 -2 648 -4 647 -1 666 c 0
 3 692 -14 727 -47 722 c 1
 -79 724 -86 781 -53 790 c 1
 97 792 246 789 396 790 c 0
-8 -102 m 0
 -9 -124 -28 -141 -50 -137 c 1
 -51 -137 l 1
 -91 -141 -94 -204 -56 -214 c 1
 -55 -214 l 2
 20 -217 94 -214 169 -215 c 0
 266 -214 364 -217 461 -214 c 1
 579 -204 678 -109 705 4 c 0
 738 126 688 267 582 336 c 0
 568 348 548 346 566 356 c 1
 566 357 l 1
 636 419 672 521 644 612 c 0
 617 712 523 788 420 795 c 0
 412 796 404 797 396 797 c 0
 246 796 97 798 -53 796 c 2
 -54 796 l 1
 -94 786 -90 717 -47 716 c 2
 -46 716 l 1
 -20 721 -4 691 -8 667 c 1
 -8 411 -7 154 -8 -102 c 0
377 287 m 1
 473 277 550 188 553 93 c 0
 560 -3 492 -99 397 -119 c 0
 345 -128 291 -122 238 -124 c 2
 141 -124 l 1
 141 288 l 1
 220 287 298 290 377 287 c 1
378 294 m 1
 298 297 218 294 138 295 c 2
 134 295 l 1
 134 292 l 1
 134 -127 l 1
 134 -131 l 1
 238 -131 l 2
 291 -129 345 -136 398 -126 c 0
 497 -104 567 -6 560 93 c 0
 557 192 478 284 378 294 c 1
549 658 m 1
 549 657 l 1
 527 644 542 604 570 618 c 1
 571 618 l 1
 593 632 573 668 549 658 c 1
552 651 m 1
 569 657 581 633 567 624 c 1
 567 624 523 632 552 651 c 1
78 -85 m 0
 56 -90 47 -60 72 -54 c 0
 89 -54 94 -80 78 -85 c 0
72 -48 m 2
 71 -48 l 1
 37 -55 49 -99 79 -92 c 0
 103 -85 97 -47 72 -48 c 2
354 373 m 2
 366 373 377 374 388 378 c 0
 462 404 496 490 489 562 c 0
 485 629 443 702 371 714 c 1
 370 714 l 2
 293 717 215 715 138 716 c 2
 134 716 l 1
 134 373 l 1
 354 373 l 2
370 708 m 1
 437 697 478 626 482 561 c 0
 488 491 456 409 386 385 c 0
 376 382 365 380 354 380 c 2
 141 380 l 1
 141 709 l 1
 218 708 294 711 370 708 c 1
EndSplineSet
Validated: 37
EndChar

StartChar: afii10020
Encoding: 1043 1043 15
Width: 1024
VWidth: 0
Flags: MW
HStem: -32 5<78 78 79 79 280 280> 106 5<171.5 175 169 176> 713 6 778 6<83 83>
VStem: 119 5<577 681 58 682> 158 5<94 97 90 98.5> 234 6<63 713 63 713 63 719> 699 6<639 639>
LayerCount: 2
Fore
SplineSet
118 58 m 0
 117 41 102 27 85 30 c 2
 84 30 l 2
 71 29 63 20 60 10 c 0
 55 -6 60 -26 78 -32 c 1
 79 -32 l 2
 115 -35 151 -32 187 -33 c 0
 218 -32 249 -35 280 -32 c 2
 281 -32 l 1
 293 -28 299 -17 300 -6 c 0
 302 10 294 28 275 30 c 2
 274 30 l 1
 254 26 239 43 240 63 c 2
 240 713 l 1
 342 713 440 714 541 713 c 0
 587 709 629 677 647 634 c 1
 647 633 l 1
 652 625 661 620 671 618 c 0
 685 616 702 621 705 638 c 2
 705 639 l 2
 704 662 689 681 682 701 c 0
 670 726 661 753 647 778 c 1
 646 779 l 2
 631 790 612 782 598 784 c 0
 426 784 255 785 83 784 c 2
 82 784 l 2
 67 781 60 768 59 755 c 0
 58 739 66 721 85 719 c 2
 86 719 l 1
 106 723 122 701 119 682 c 2
 119 681 l 2
 119 473 119 266 118 58 c 0
234 63 m 2
 233 41 250 21 275 25 c 1
 289 23 297 9 295 -6 c 0
 294 -15 289 -24 279 -27 c 0
 249 -30 218 -27 187 -28 c 0
 151 -27 116 -30 79 -27 c 0
 65 -22 60 -5 65 9 c 0
 68 17 74 24 84 25 c 0
 104 21 123 36 124 58 c 0
 125 266 124 473 124 681 c 0
 127 703 111 728 85 724 c 1
 70 726 61 741 63 756 c 0
 64 767 71 775 83 778 c 0
 254 779 427 779 598 779 c 1
 595 779 594 780 597 779 c 0
 613 777 630 783 642 775 c 1
 655 752 665 724 677 699 c 1
 676 702 675 702 676 699 c 0
 683 677 698 661 699 639 c 1
 695 619 664 619 652 636 c 1
 634 680 590 714 541 718 c 0
 440 719 338 719 237 719 c 2
 234 719 l 1
 234 63 l 2
175 111 m 0
 163 111 158 103 158 94 c 0
 159 84 168 72 181 75 c 0
 201 80 197 112 175 111 c 0
176 106 m 0
 190 107 193 83 179 80 c 0
 170 78 163 86 163 94 c 0
 163 100 167 106 176 106 c 0
158 664 m 0
 162 654 172 652 180 655 c 0
 189 659 197 669 190 681 c 1
 190 682 l 1
 178 698 150 683 158 664 c 0
163 666 m 0
 158 679 177 689 185 678 c 1
 185 678 186 665 178 662 c 0
 172 660 165 660 163 666 c 0
EndSplineSet
Validated: 37
EndChar

StartChar: afii10021
Encoding: 1044 1044 16
Width: 1024
VWidth: 0
Flags: MW
HStem: -109 6<26 706 26 713> -42 6<90 98.5> -27 5<171 178 171 178> 622 6<573 573> 696 6<279 494 494 494> 777 6<164 165 164 165 164 165>
VStem: 20 6<-103 -35 -103 -33 -103 -32> 194 6<617 617> 273 6<696 702 696 699> 276 6<411 411> 494 6<1 696> 640 6<27 28 28 673> 706 7<-109 -103>
LayerCount: 2
Fore
SplineSet
194 617 m 0xff38
 200 492 206 365 176 243 c 0
 151 139 85 52 20 -32 c 1
 20 -33 l 1
 20 -109 l 1
 713 -109 l 1
 713 -106 l 2
 711 -87 718 -65 707 -45 c 1
 707 -44 l 1
 689 -21 655 -22 648 6 c 0
 646 13 646 20 646 27 c 2
 646 673 l 2
 647 692 663 707 682 708 c 2
 683 708 l 1
 716 719 713 771 681 781 c 0
 653 787 624 783 597 784 c 2
 596 784 l 2
 452 784 309 784 165 783 c 2
 164 783 l 1
 130 779 118 730 148 712 c 1
 150 712 l 1
 150 711 l 1
 165 704 181 704 187 689 c 0
 197 667 190 642 194 617 c 0xff38
640 28 m 2
 640 20 640 12 642 4 c 0
 650 -28 687 -29 702 -48 c 1
 692 -34 694 -33 702 -48 c 1
 711 -64 705 -83 706 -103 c 1
 26 -103 l 1
 26 -35 l 1
 89 47 156 137 182 242 c 0
 212 365 206 492 200 617 c 0
 196 640 204 667 193 691 c 0
 185 710 164 711 151 717 c 1
 166 709 167 708 152 717 c 0
 128 732 137 774 165 777 c 1
 148 776 148 777 165 777 c 1
 309 778 452 778 596 778 c 1
 579 778 579 779 596 778 c 1
 624 777 653 780 680 775 c 1
 663 779 663 780 679 775 c 0
 706 767 708 724 681 714 c 1
 659 712 641 696 640 673 c 2
 640 28 l 2
578 596 m 0
 560 592 551 618 573 622 c 0
 588 622 591 600 578 596 c 0
572 628 m 0
 542 622 553 584 579 590 c 0
 601 596 594 629 572 628 c 0
91 -36 m 2
 90 -36 l 1
 59 -44 70 -83 98 -75 c 0
 120 -69 113 -35 91 -36 c 2
91 -42 m 1
 106 -42 110 -66 96 -70 c 0
 76 -76 68 -49 91 -42 c 1
164 6 m 0
 182 41 204 74 220 111 c 0
 267 204 280 308 282 410 c 0xff78
 284 505 281 603 279 696 c 1xffb8
 494 696 l 1
 494 464 495 232 494 1 c 0
 492 -17 471 -25 453 -22 c 0
 361 -21 269 -24 178 -22 c 0
 164 -22 159 -6 164 6 c 0
500 702 m 1
 273 702 l 1
 273 699 l 2xffb8
 275 603 278 507 276 411 c 0
 274 309 261 205 215 113 c 0
 199 77 176 44 158 8 c 0
 151 -7 159 -27 178 -27 c 0
 269 -29 362 -27 453 -28 c 0
 472 -31 497 -23 500 1 c 0
 501 233 500 467 500 699 c 2
 500 702 l 1
EndSplineSet
Validated: 37
EndChar

StartChar: afii10022
Encoding: 1045 1045 17
Width: 1024
VWidth: 0
Flags: MW
HStem: -144 5<162 623 162 623> -73 5<215 498 215 498 497 498> 266 5<215 397 210 397> 343 6<215 353 215 353 215 353> 610 5 676 5<556 556>
VStem: 93 5<-52 577 -52 578> 210 5<-68 266 -68 271 349 610> 431 5<213 224 213 224 213 225> 490 7<268 268 269 269> 659 5<535 535>
LayerCount: 2
Fore
SplineSet
654 35 m 0
 627 28 626 -4 612 -18 c 2
 611 -19 l 1
 585 -54 541 -72 498 -68 c 1
 215 -68 l 1
 215 266 l 1
 397 266 l 2
 419 267 435 245 431 225 c 1
 431 224 l 2
 431 196 468 180 487 202 c 0
 504 221 495 248 497 268 c 0
 496 310 498 353 496 396 c 0
 491 424 450 432 436 407 c 0
 424 389 436 368 420 357 c 0
 402 343 377 352 353 349 c 2
 215 349 l 1
 215 610 l 1
 310 610 406 611 501 609 c 1
 547 604 588 572 606 529 c 0
 618 509 660 505 664 534 c 1
 664 535 l 2
 663 559 648 578 641 598 c 0
 629 623 620 650 606 675 c 1
 606 676 l 1
 605 676 l 1
 590 687 571 679 557 681 c 2
 556 681 l 2
 390 681 223 682 57 681 c 2
 56 681 l 1
 23 675 25 618 59 615 c 2
 60 615 l 1
 80 619 96 598 93 578 c 2
 93 577 l 2
 93 367 94 158 93 -52 c 0
 92 -69 75 -84 58 -80 c 1
 26 -83 22 -133 52 -143 c 1
 88 -146 126 -144 162 -145 c 0
 316 -145 469 -145 622 -144 c 2
 623 -144 l 1
 641 -137 642 -113 649 -102 c 0
 662 -67 678 -33 690 3 c 0
 697 25 674 43 654 35 c 0
397 271 m 2
 210 271 l 1
 210 -73 l 1
 498 -73 l 2
 482 -72 481 -72 497 -73 c 0
 542 -77 589 -58 616 -22 c 1
 606 -34 605 -33 616 -22 c 1
 634 -4 633 24 656 30 c 0
 672 36 691 22 685 5 c 0
 673 -30 658 -63 644 -99 c 0
 636 -113 636 -133 622 -139 c 1
 470 -140 315 -139 162 -139 c 0
 125 -138 90 -141 53 -138 c 1
 30 -130 32 -90 58 -86 c 1
 80 -90 97 -74 98 -52 c 0
 99 158 98 367 98 577 c 1
 97 561 96 561 98 577 c 1
 101 599 85 625 59 621 c 1
 33 624 29 669 57 675 c 1
 223 676 390 676 556 676 c 1
 540 677 540 678 556 676 c 1
 573 673 589 680 601 672 c 1
 614 649 624 620 636 595 c 1
 630 610 631 611 636 596 c 0
 643 574 658 557 659 535 c 1
 655 513 622 514 611 531 c 0
 593 575 551 609 502 614 c 1
 501 614 l 2
 405 616 308 614 212 615 c 2
 210 615 l 1
 210 343 l 1
 353 343 l 2
 375 345 401 336 423 352 c 0
 442 365 432 391 441 404 c 0
 452 424 486 417 490 395 c 1
 488 411 489 412 490 396 c 0
 492 354 489 311 490 268 c 1
 491 284 492 285 490 269 c 0
 487 246 497 222 483 206 c 0
 468 189 436 202 436 224 c 0
 440 247 422 272 397 271 c 2
171 557 m 0
 165 584 126 573 135 550 c 1
 130 565 129 565 134 550 c 0
 140 530 172 537 171 557 c 0
165 556 m 0
 165 542 144 539 140 552 c 0
 134 567 160 575 165 556 c 0
170 -29 m 0
 165 -1 127 -12 134 -36 c 0
 140 -56 171 -49 170 -29 c 0
165 -30 m 0
 166 -44 143 -47 139 -34 c 0
 134 -17 161 -8 165 -30 c 0
EndSplineSet
Validated: 37
EndChar

StartChar: afii10024
Encoding: 1046 1046 18
Width: 1024
VWidth: 0
Flags: MW
HStem: -171 4<106 108 531 555.5> -122 4<410 425 412 425> 416 4<438 438> 457 4
VStem: 216 4<251 251> 307 4 309 4<279 279> 398 5<89 127 88 128 88 129> 530 5<-171 -81>
LayerCount: 2
Fore
SplineSet
226 11 m 1xfb80
 246 51 266 91 286 130 c 1
 299 91 310 -59 307 -106 c 1xfd80
 299 -125 252 -118 263 -154 c 1
 263 -155 l 1
 281 -185 325 -166 351 -171 c 1
 352 -171 l 2
 380 -169 411 -175 439 -167 c 1
 440 -167 l 1
 465 -144 437 -118 413 -118 c 1
 391 -38 403 49 403 127 c 1
 427 157 438 98 453 76 c 2
 453 76 525 -70 530 -82 c 1
 530 -107 477 -160 530 -171 c 1
 581 -171 632 -171 683 -170 c 1
 721 -154 701 -110 669 -104 c 1
 644 -77 634 -39 615 -6 c 0
 575 76 534 159 494 241 c 1
 502 268 533 281 551 304 c 0
 573 326 593 346 615 366 c 1
 651 340 708 370 701 415 c 0
 697 458 637 479 609 445 c 1
 543 384 478 322 411 262 c 1
 391 276 409 324 402 352 c 0
 398 381 402 419 438 416 c 2
 439 416 l 1
 440 417 l 2
 472 448 424 471 397 462 c 1
 356 461 316 465 276 461 c 1
 275 461 l 1
 275 460 l 1
 244 440 273 408 299 409 c 1
 321 373 303 323 309 279 c 1
 308 238 274 291 255 303 c 1
 199 355 145 406 89 457 c 1
 88 457 l 1
 49 479 -4 436 13 393 c 1
 25 350 75 356 101 361 c 1
 140 324 178 288 216 251 c 1
 215 219 189 192 178 161 c 0
 136 76 95 -10 53 -94 c 1
 33 -111 -16 -134 22 -166 c 1
 22 -167 l 1
 49 -177 78 -168 106 -171 c 2
 108 -171 l 2
 136 -169 167 -175 195 -168 c 1
 196 -168 l 1
 196 -167 l 1
 222 -140 186 -111 181 -89 c 1
 185 -52 213 -24 226 11 c 1xfb80
399 129 m 1
 398 129 l 1
 398 128 l 2
 398 50 388 -39 410 -120 c 1
 410 -122 l 1
 412 -122 l 2
 435 -120 460 -144 438 -163 c 1
 412 -170 382 -165 352 -167 c 1
 323 -161 283 -179 267 -153 c 1
 257 -119 301 -136 311 -108 c 1xfd80
 314 -57 303 104 288 136 c 2
 286 140 l 1
 284 136 l 2
 262 95 244 53 222 12 c 1
 209 -22 181 -51 177 -89 c 1
 177 -90 l 1
 182 -117 217 -139 194 -164 c 1
 169 -170 135 -165 106 -167 c 1
 118 -167 120 -168 108 -167 c 0
 79 -164 49 -172 23 -163 c 1
 -9 -134 33 -115 56 -96 c 1
 57 -96 l 1
 99 -11 140 75 182 160 c 1
 192 190 220 218 220 251 c 2
 220 252 l 1
 220 253 l 1
 182 291 142 328 103 365 c 2
 102 366 l 1
 101 366 l 1
 74 361 28 355 17 394 c 0
 2 433 50 472 86 453 c 1
 142 403 198 351 253 300 c 0
 266 292 312 229 313 279 c 1xfb80
 308 321 327 373 302 412 c 1
 301 414 l 1
 300 413 l 1
 276 410 253 440 278 457 c 1
 317 460 358 457 398 458 c 1
 424 467 462 446 437 420 c 1
 397 422 394 380 398 351 c 0
 405 326 384 274 410 258 c 1
 411 257 l 1
 412 258 l 1
 479 319 546 380 612 442 c 1
 612 443 l 1
 613 443 l 1
 639 474 694 454 697 415 c 2
 697 414 l 1
 703 373 649 344 617 370 c 1
 615 371 l 1
 614 370 l 2
 592 348 570 329 548 307 c 0
 531 285 497 271 490 242 c 1
 490 241 l 1
 490 240 l 1
 530 157 570 74 611 -8 c 0
 630 -40 640 -78 666 -106 c 1
 666 -108 l 1
 667 -108 l 1
 697 -112 714 -152 682 -166 c 1
 632 -167 582 -167 531 -167 c 1
 483 -156 536 -114 535 -81 c 1
 534 -80 l 1
 511 -26 483 25 457 78 c 0
 446 93 428 166 399 129 c 1
341 368 m 0
 345 352 373 360 368 378 c 1
 368 379 l 1
 361 394 336 384 341 368 c 0
345 370 m 0
 342 381 359 386 364 377 c 0
 367 363 348 360 345 370 c 0
357 -91 m 0
 374 -89 369 -61 352 -63 c 0
 335 -66 340 -94 357 -91 c 0
352 -67 m 0
 364 -65 367 -86 356 -87 c 0
 344 -89 340 -69 352 -67 c 0
EndSplineSet
Validated: 37
EndChar

StartChar: afii10025
Encoding: 1047 1047 19
Width: 1024
VWidth: 0
Flags: MW
HStem: 99 5<305 383.5 305 384>
VStem: 65 5<202 210.5 194.5 213>
LayerCount: 2
Fore
SplineSet
427 391 m 0
 474 362 527 332 547 279 c 0
 560 244 554 204 530 175 c 0
 488 122 416 104 351 104 c 0
 259 104 164 141 108 216 c 0
 95 232 65 224 65 202 c 0
 67 187 84 179 91 170 c 1
 92 170 l 1
 168 98 267 45 373 37 c 0
 461 30 555 54 618 119 c 0
 657 159 677 220 659 274 c 0
 640 335 590 380 539 412 c 0
 528 422 512 421 524 427 c 1
 525 427 l 1
 567 461 603 504 620 556 c 0
 637 610 625 671 589 714 c 0
 538 776 452 801 375 790 c 0
 286 778 207 726 145 663 c 1
 142 675 141 693 123 695 c 0
 108 697 82 695 76 676 c 1
 95 525 l 1
 96 525 l 1
 113 507 140 520 152 534 c 1
 187 609 246 679 328 702 c 0
 365 712 406 718 440 700 c 1
 441 700 l 1
 486 681 516 632 510 583 c 0
 503 520 459 468 412 427 c 0
 397 412 416 396 427 391 c 0
615 557 m 0
 599 506 564 465 522 431 c 1
 502 421 532 411 535 408 c 2
 536 408 l 1
 587 376 636 331 654 272 c 0
 672 220 653 161 615 122 c 0
 553 59 460 35 373 42 c 0
 268 50 171 102 95 173 c 1
 105 162 104 161 95 173 c 1
 86 184 72 190 70 202 c 1
 71 188 70 187 70 202 c 1
 70 219 93 226 104 213 c 1
 95 224 95 225 104 213 c 1
 161 137 258 99 351 99 c 0
 417 99 491 118 534 172 c 0
 559 202 565 244 552 280 c 0
 530 335 477 367 430 395 c 0
 418 400 405 414 415 424 c 0
 462 465 508 516 515 582 c 0
 522 634 489 685 442 705 c 1
 455 699 456 698 443 705 c 0
 407 724 364 717 327 707 c 0
 243 683 183 614 148 537 c 1
 136 524 114 514 100 528 c 1
 81 675 l 1
 86 689 106 692 122 690 c 0
 137 689 137 671 142 657 c 2
 143 653 l 1
 146 656 l 2
 208 719 286 772 375 784 c 0
 451 795 535 772 585 711 c 0
 620 669 632 609 615 557 c 0
597 150 m 0
 616 157 603 190 581 178 c 1
 581 177 l 1
 566 166 580 143 597 150 c 0
584 173 m 0
 598 181 606 158 595 154 c 0
 584 149 574 166 584 173 c 0
519 705 m 0
 503 694 524 664 541 680 c 1
 541 681 l 1
 542 681 l 1
 554 695 534 716 519 705 c 0
538 684 m 0
 526 673 512 693 522 700 c 0
 532 707 546 693 538 684 c 0
EndSplineSet
Validated: 37
EndChar

StartChar: afii10026
Encoding: 1048 1048 20
Width: 1024
VWidth: 0
Flags: MW
HStem: -126 4 -21 20G<191 191> 637 4
VStem: 144 6<-39 60 -39 556> 252 6 495 5<-41 376> 604 5<-41 554>
LayerCount: 2
Fore
SplineSet
609 -41 m 0
 608 157 609 356 609 554 c 0
 609 570 624 585 640 582 c 1
 670 584 675 630 648 640 c 1
 623 644 598 641 574 642 c 2
 573 642 l 2
 535 641 497 643 459 641 c 2
 458 641 l 1
 430 633 432 587 461 582 c 1
 462 582 l 2
 476 584 490 577 493 563 c 0
 496 550 495 535 494 523 c 1
 258 139 l 1
 258 279 257 417 258 556 c 0
 259 572 274 585 290 582 c 1
 320 585 324 632 296 641 c 1
 295 641 l 2
 262 644 229 641 197 642 c 0
 167 641 136 644 106 641 c 1
 78 632 81 585 111 582 c 2
 112 582 l 2
 128 585 143 572 144 556 c 0
 145 358 144 159 144 -39 c 0
 144 -55 129 -70 113 -67 c 2
 112 -67 l 2
 82 -69 77 -115 104 -125 c 1
 105 -125 l 1
 130 -129 155 -126 179 -127 c 0
 217 -126 256 -128 294 -126 c 1
 322 -118 321 -72 292 -67 c 1
 291 -67 l 2
 277 -69 263 -62 260 -48 c 0
 257 -35 257 -20 258 -8 c 1
 495 376 l 1
 495 236 496 98 495 -41 c 0
 494 -57 479 -70 463 -67 c 2
 462 -67 l 2
 432 -70 429 -117 457 -126 c 1
 458 -126 l 2
 491 -129 524 -126 556 -127 c 0
 586 -126 617 -129 647 -126 c 1
 675 -117 672 -70 642 -67 c 2
 641 -67 l 2
 625 -70 610 -57 609 -41 c 0
252 130 m 2
 252 121 l 1
 499 521 l 1
 499 522 l 2
 501 535 501 550 498 564 c 0
 494 581 478 589 461 587 c 1
 439 591 435 629 459 636 c 1
 496 638 536 636 574 637 c 1
 559 637 558 638 573 637 c 0
 598 636 622 639 647 635 c 1
 669 627 665 589 640 587 c 1
 620 590 604 573 604 554 c 0
 604 356 603 157 604 -41 c 0
 605 -60 622 -75 642 -72 c 1
 664 -75 669 -113 646 -121 c 1
 617 -124 586 -121 556 -122 c 0
 523 -121 491 -124 458 -121 c 1
 436 -114 439 -75 463 -72 c 1
 482 -75 499 -60 500 -41 c 0
 501 101 500 243 500 385 c 2
 500 394 l 1
 253 -6 l 1
 253 -7 l 2
 251 -20 252 -35 255 -49 c 0
 259 -66 274 -74 291 -72 c 1
 313 -76 317 -114 293 -121 c 1
 256 -123 217 -121 179 -122 c 1
 194 -122 194 -123 179 -122 c 1
 154 -121 131 -124 106 -120 c 1
 84 -112 87 -74 112 -72 c 1
 132 -75 150 -58 150 -39 c 0
 150 159 151 358 150 556 c 0
 149 575 131 590 111 587 c 1
 89 590 83 628 106 636 c 1
 135 639 167 636 197 637 c 0
 230 636 262 639 295 636 c 1
 317 629 314 590 290 587 c 1
 271 590 254 575 253 556 c 0
 252 414 252 272 252 130 c 2
204 -28 m 0
 224 -22 211 12 189 3 c 0
 172 -7 186 -35 204 -28 c 0
202 -23 m 0
 190 -28 180 -8 191 -1 c 1
 191 -1 226 -15 202 -23 c 0
537 535 m 0
 542 509 577 519 571 541 c 0
 565 559 536 554 537 535 c 0
542 536 m 0
 542 549 562 552 566 540 c 0
 570 525 546 517 542 536 c 0
EndSplineSet
Validated: 37
EndChar

StartChar: afii10029
Encoding: 1051 1051 21
Width: 1024
VWidth: 0
Flags: MW
HStem: -102 5<672 684.5 672 687.5> -2 21G<199 200 199 199> 589 6<315 527 527 527> 614 6<221 221 222 222 674 674 675 675> 671 5<217 673>
VStem: 251 5<101 101> 310 5<259 589 259 595 259 589> 527 7<-15 595> 637 5<588 588>
LayerCount: 2
Fore
SplineSet
642 588 m 0
 643 604 658 617 674 614 c 2
 675 614 l 1
 707 619 706 674 673 677 c 0
 521 677 370 677 218 676 c 2
 217 676 l 1
 185 670 188 615 221 614 c 2
 222 614 l 1
 242 618 255 596 252 577 c 0
 252 418 252 259 251 101 c 0
 249 61 239 15 200 -2 c 1
 199 -2 l 1
 187 -11 196 5 188 17 c 0
 170 63 108 82 68 54 c 0
 26 29 18 -35 52 -70 c 0
 80 -99 125 -104 162 -101 c 0
 243 -92 307 -20 314 59 c 0
 317 126 314 192 315 259 c 2
 315 589 l 1
 527 589 l 1
 527 388 528 186 527 -15 c 0
 526 -31 511 -44 495 -41 c 2
 494 -41 l 2
 463 -44 461 -93 490 -101 c 1
 550 -103 612 -101 672 -102 c 0
 703 -102 709 -54 681 -43 c 0
 668 -40 654 -43 648 -31 c 0
 636 -11 644 564 642 588 c 0
534 592 m 2
 534 595 l 1
 310 595 l 1
 310 259 l 2
 309 192 312 125 309 59 c 0
 302 -18 239 -87 161 -95 c 0
 124 -98 82 -94 56 -67 c 0
 24 -34 32 26 71 49 c 1
 71 50 l 1
 109 76 167 58 183 15 c 1
 183 14 l 2
 186 10 185 -19 202 -7 c 1
 244 11 254 61 256 101 c 0
 257 260 257 418 257 577 c 1
 256 562 255 560 257 575 c 0
 260 595 247 624 221 620 c 1
 196 621 192 665 218 671 c 1
 369 672 521 671 673 671 c 0
 699 669 701 624 675 620 c 1
 656 623 638 608 637 588 c 0
 636 405 637 221 637 38 c 2
 637 37 l 2
 639 15 631 -12 644 -34 c 0
 652 -49 669 -45 680 -48 c 1
 666 -44 666 -43 680 -48 c 1
 703 -57 697 -97 672 -97 c 0
 612 -96 551 -98 490 -96 c 1
 468 -89 469 -50 494 -46 c 1
 513 -49 531 -35 532 -15 c 0
 533 187 534 390 534 592 c 2
110 22 m 0
 125 32 134 6 122 0 c 0
 110 -5 99 14 110 22 c 0
125 -5 m 0
 144 5 128 39 106 25 c 0
 90 13 107 -13 125 -5 c 0
572 563 m 0
 571 576 592 581 596 568 c 0
 602 551 575 543 572 563 c 0
567 563 m 0
 571 536 609 544 601 569 c 0
 595 587 566 582 567 563 c 0
EndSplineSet
Validated: 37
EndChar

StartChar: afii10031
Encoding: 1053 1053 22
Width: 1024
VWidth: 0
Flags: MW
HStem: 20 43 352 46<216 492 216 492> 684 47
VStem: 119 97<324 352 398 401 401 607 607 607> 490 35 492 97<349 352 352 352 398 607 607 607>
LayerCount: 2
Fore
SplineSet
486 93 m 2xf0
 487 607 l 1
 487 403 l 1
 221 403 l 1
 221 488 220 573 221 657 c 0
 222 672 237 683 252 680 c 1
 252 680 l 1
 252 680 l 1
 276 676 295 706 279 725 c 0
 265 743 239 734 222 736 c 1
 222 736 l 1
 222 736 l 1
 160 736 l 2
 130 736 99 736 69 735 c 2
 68 735 l 1
 68 735 l 1
 44 730 39 694 62 683 c 0
 79 674 99 686 108 670 c 0
 119 652 112 629 114 607 c 0
 114 436 114 266 113 95 c 0
 112 79 98 66 83 70 c 0
 61 75 40 54 49 32 c 0
 56 12 79 13 94 14 c 0
 150 15 207 13 263 15 c 1
 263 15 l 1
 263 15 l 1
 287 20 291 56 269 67 c 0
 253 76 236 65 227 80 c 0
 216 98 223 121 221 143 c 2
 221 347 l 1
 487 347 l 1
 487 262 487 177 486 93 c 2xf0
487 606 m 2
 486 93 l 2
 485 78 471 67 456 70 c 0
 433 75 413 47 426 27 c 0
 439 5 467 16 484 14 c 1
 484 14 l 1
 484 14 l 1
 535 15 587 13 638 15 c 1
 638 15 l 1
 638 15 l 1
 662 20 667 56 644 67 c 0
 627 76 609 64 600 80 c 0
 589 98 596 121 594 143 c 0
 594 314 593 484 594 655 c 0
 595 671 609 684 625 680 c 0
 648 675 668 701 656 721 c 0
 644 743 616 735 599 736 c 1
 599 736 l 1
 599 736 l 1
 547 735 496 737 444 735 c 2
 443 735 l 1
 443 735 l 1
 418 730 414 692 438 682 c 0
 454 674 472 685 481 670 c 0
 492 652 485 628 487 606 c 2
216 401 m 2
 216 398 l 1
 492 398 l 1
 492 607 l 2
 490 627 497 653 485 673 c 0
 475 691 452 682 440 687 c 0
 421 695 424 726 444 730 c 0
 495 732 547 730 599 731 c 0
 619 729 642 737 652 719 c 0
 662 702 645 680 626 684 c 0
 607 688 590 673 589 655 c 0
 588 484 589 314 589 143 c 0xf4
 591 123 584 97 596 77 c 0
 607 58 630 69 642 63 c 0
 660 54 656 24 637 20 c 0
 587 18 535 20 484 19 c 0
 464 21 441 12 430 30 c 0
 419 46 436 70 455 66 c 0
 473 62 488 75 490 93 c 0xf8
 491 178 492 264 492 349 c 2
 492 352 l 1xf4
 216 352 l 1
 216 143 l 2
 218 123 210 97 222 77 c 0
 232 59 255 69 267 63 c 0
 285 54 281 24 262 20 c 0
 207 18 150 20 94 19 c 0
 78 18 58 18 53 34 c 0
 46 51 64 70 82 66 c 0
 101 62 117 77 118 95 c 0
 118 171 119 248 119 324 c 2
 119 607 l 2
 117 627 124 653 112 673 c 0
 101 692 75 680 63 687 c 0
 45 696 50 726 69 730 c 0
 98 731 127 731 157 731 c 2
 214 731 l 1
 215 731 l 1
 216 731 l 1
 222 731 l 1
 216 731 l 1
 215 732 l 1
 214 732 l 1
 212 732 l 1
 213 732 l 2
 215 732 218 731 222 731 c 0
 242 729 263 738 275 722 c 0
 288 707 272 681 253 684 c 0
 235 688 218 675 216 657 c 0
 215 572 216 486 216 401 c 2
176 630 m 0
 172 654 138 644 144 624 c 0
 149 607 177 612 176 630 c 0
171 630 m 0
 172 618 154 614 150 626 c 0
 146 639 167 647 171 630 c 0
525 118 m 0xf8
 525 93 566 100 557 124 c 1
 561 111 561 110 557 123 c 0
 552 140 524 136 525 118 c 0xf8
530 118 m 0
 529 130 549 134 552 122 c 0
 558 105 530 100 530 118 c 0
EndSplineSet
Validated: 37
EndChar

StartChar: afii10032
Encoding: 1054 1054 23
Width: 1024
VWidth: 0
Flags: MW
HStem: 481 4<361 361> 522 4<411 411>
VStem: 60 3<218 233.5>
LayerCount: 2
Fore
SplineSet
65 195 m 2
 63 218 l 2
 63 249 67 280 77 309 c 0
 93 365 126 415 170 452 c 0
 201 477 235 499 273 510 c 0
 317 525 365 528 411 522 c 0
 439 517 468 509 494 497 c 0
 540 477 578 445 609 406 c 0
 634 373 653 335 662 295 c 0
 678 235 672 170 649 112 c 0
 640 89 628 68 614 46 c 1
 621 56 621 55 614 46 c 1
 592 19 568 -8 539 -27 c 1
 538 -27 l 1
 520 -40 502 -50 480 -58 c 0
 424 -80 362 -86 303 -72 c 0
 280 -68 259 -61 237 -51 c 0
 174 -21 120 33 91 98 c 0
 77 129 67 161 65 195 c 2
541 -30 m 0
 571 -10 595 16 617 44 c 0
 631 66 643 87 653 110 c 0
 676 169 681 235 665 296 c 0
 655 337 637 375 612 408 c 0
 581 447 542 481 496 501 c 0
 470 513 441 521 412 526 c 0
 365 532 317 528 272 513 c 0
 233 501 198 480 167 455 c 0
 123 417 89 366 73 310 c 0
 63 280 60 249 60 218 c 2
 61 195 l 2
 63 161 73 127 87 96 c 0
 116 30 169 -23 234 -54 c 0
 256 -64 279 -72 302 -76 c 0
 361 -90 424 -84 481 -62 c 0
 503 -54 523 -44 541 -30 c 0
119 225 m 0
 116 243 87 237 92 219 c 1
 90 231 90 232 92 220 c 0
 95 202 124 208 119 225 c 0
115 224 m 2
 118 212 98 208 96 220 c 0
 93 232 113 237 115 225 c 2
 115 224 l 2
157 146 m 0
 168 100 190 58 222 24 c 0
 251 -6 289 -29 331 -37 c 0
 359 -43 388 -41 416 -34 c 0
 451 -24 484 -4 509 22 c 0
 536 49 556 81 569 117 c 0
 592 180 593 251 574 314 c 0
 566 340 554 364 539 387 c 0
 515 422 482 452 443 469 c 0
 417 481 388 486 360 485 c 0
 337 484 314 480 292 470 c 0
 266 459 245 440 223 421 c 0
 193 388 170 349 159 306 c 0
 144 254 143 198 157 146 c 0
226 418 m 0
 246 437 268 455 294 466 c 0
 316 475 338 480 361 481 c 0
 389 482 416 477 441 465 c 0
 479 449 512 420 535 385 c 0
 550 363 562 338 570 313 c 0
 589 250 588 181 565 119 c 0
 552 84 532 50 506 24 c 0
 481 -2 449 -20 415 -30 c 0
 388 -37 359 -38 332 -33 c 0
 291 -25 254 -2 225 27 c 0
 193 60 171 102 161 147 c 0
 147 198 148 253 163 304 c 0
 174 347 196 386 226 418 c 0
617 216 m 0
 629 203 648 214 640 231 c 1
 640 232 l 1
 639 232 l 1
 628 243 608 230 617 216 c 0
620 218 m 0
 615 228 629 235 636 229 c 1
 642 215 629 209 620 218 c 0
EndSplineSet
Validated: 37
EndChar

StartChar: afii10033
Encoding: 1055 1055 24
Width: 1024
VWidth: 0
Flags: MW
HStem: -82 5<97 297 98 297 98 298 98 298 438 636> 647 5<258 477 477 477> 727 5<638 638>
VStem: 137 6<8 8> 253 5<11 647 14 647 14 652> 477 6<8 652> 517 5<604 615 604 615> 593 5<643 643> 595 6<4.29497e+09 4.29497e+09 4.29497e+09 4.29497e+09>
LayerCount: 2
Fore
SplineSet
137 8 m 0xff
 136 -9 120 -23 103 -20 c 2
 102 -20 l 2
 70 -23 67 -73 97 -82 c 1
 98 -82 l 2
 166 -82 234 -86 297 -82 c 1
 298 -82 l 1
 328 -74 326 -25 295 -20 c 1
 294 -20 l 2
 280 -22 265 -15 261 -1 c 0
 259 4 258 9 258 14 c 2
 258 647 l 1
 477 647 l 1
 477 434 478 221 477 8 c 0
 476 -9 460 -23 443 -20 c 2
 442 -20 l 2
 410 -23 406 -73 436 -82 c 1
 437 -82 l 2
 505 -82 574 -86 637 -82 c 1
 667 -74 665 -25 634 -20 c 1
 619 -22 605 -15 601 -2 c 0xfe80
 594 215 597 451 598 642 c 0
 599 659 614 673 631 670 c 1
 663 672 669 721 640 732 c 1
 639 732 l 1
 459 736 260 735 101 734 c 1
 70 729 68 679 98 671 c 1
 99 671 l 2
 113 670 126 669 132 658 c 1
 147 441 138 201 137 8 c 0xff
253 14 m 2
 253 8 254 2 256 -3 c 1
 251 12 252 12 256 -3 c 1
 261 -20 277 -27 294 -25 c 1
 317 -29 322 -70 297 -77 c 1
 235 -81 167 -78 98 -77 c 1
 76 -69 77 -29 103 -25 c 1
 123 -29 142 -14 143 8 c 0
 144 201 152 442 137 659 c 1
 137 660 l 1
 130 676 113 676 99 677 c 0
 76 684 76 723 102 728 c 1
 261 729 457 731 638 727 c 1
 660 718 658 678 632 676 c 1
 612 679 594 663 593 643 c 0xff
 592 452 588 214 595 -2 c 1
 595 -3 l 1
 600 -20 617 -27 634 -25 c 1
 657 -29 661 -69 636 -77 c 1
 574 -81 507 -78 438 -77 c 1
 416 -69 416 -29 442 -25 c 1
 462 -28 481 -14 482 8 c 0
 483 222 483 435 483 649 c 2
 483 652 l 1
 253 652 l 1
 253 14 l 2
517 615 m 0
 517 586 558 596 553 621 c 0
 547 640 516 635 517 615 c 0
547 620 m 0
 551 603 522 593 522 615 c 0
 521 629 543 633 547 620 c 0
182 37 m 1
 190 9 226 18 218 44 c 0
 212 63 181 57 182 37 c 1
188 38 m 0
 188 52 209 55 213 42 c 0
 219 23 194 16 188 38 c 0
EndSplineSet
Validated: 37
EndChar

StartChar: afii10034
Encoding: 1056 1056 25
Width: 1024
VWidth: 0
Flags: MW
HStem: 17 5<111 279 112 279> 407 5<259 264> 473 5<259 297.5 264 296.5> 733 6 739 5<118 118 119 119> 796 5<112 435>
VStem: 148 6<104 104> 259 5<101 407 109 407 109 410 109 412 478 733>
LayerCount: 2
Fore
SplineSet
321 36 m 0xef
 329 58 311 82 288 78 c 0
 273 79 264 95 264 109 c 2
 264 407 l 1
 337 408 408 406 481 408 c 0
 568 414 654 472 676 559 c 0
 696 631 663 711 604 754 c 0
 556 791 493 805 434 802 c 0
 328 802 219 802 113 801 c 2
 112 801 l 1
 81 793 85 740 118 739 c 2
 119 739 l 1
 139 743 153 720 150 701 c 0
 150 502 149 303 148 104 c 0
 147 87 132 74 116 77 c 2
 115 77 l 2
 84 74 82 25 111 17 c 1
 112 17 l 2
 168 15 223 17 279 16 c 0
 294 14 316 17 321 36 c 0xef
259 109 m 2
 259 93 269 72 288 72 c 2
 289 72 l 1
 307 76 323 55 316 38 c 0
 312 23 295 20 280 22 c 2
 279 22 l 2
 223 23 169 20 112 22 c 1
 90 29 90 68 115 72 c 1
 134 69 153 84 154 104 c 0
 155 303 154 502 154 701 c 1
 153 686 152 686 154 701 c 1
 157 721 144 748 118 744 c 1
 93 745 87 789 113 796 c 1
 219 797 329 796 435 796 c 0
 494 799 554 787 601 750 c 0
 659 708 689 631 670 561 c 0
 648 477 566 419 481 413 c 0
 408 411 334 413 261 412 c 2
 259 412 l 1
 259 410 l 1
 259 109 l 2
208 106 m 0
 228 112 215 148 193 139 c 0
 176 129 189 99 208 106 c 0
206 112 m 0
 193 107 184 127 195 134 c 0
 212 140 218 116 206 112 c 0
439 733 m 1xf7
 491 726 523 673 528 623 c 0
 534 568 511 506 459 484 c 1
 394 473 331 478 264 478 c 1
 264 733 l 1
 323 733 381 735 439 733 c 1xf7
259 739 m 1xef
 259 473 l 1
 262 473 l 2
 331 473 394 468 460 479 c 1
 461 479 l 1
 517 502 541 568 534 624 c 0
 529 675 495 730 440 738 c 1
 381 740 321 739 262 739 c 2
 259 739 l 1xef
575 695 m 0
 555 689 569 654 591 663 c 0
 608 673 594 702 575 695 c 0
578 690 m 0
 591 695 600 675 589 668 c 0
 572 662 566 686 578 690 c 0
EndSplineSet
Validated: 37
EndChar
